<svg width="74" height="74" viewBox="0 0 74 74" fill="none" xmlns="http://www.w3.org/2000/svg">
<path d="M61.2662 0C59.6024 0.00648059 57.9562 0.341109 56.422 0.984705C54.8877 1.6283 53.4957 2.56821 52.3257 3.75055C49.2348 6.83983 48.2896 11.0831 49.0534 15.0788L36.6005 27.5253L35.2441 26.1696C35.2181 26.1419 35.1908 26.1155 35.1623 26.0904C34.9106 25.8873 34.5931 25.7832 34.2699 25.7978C33.9467 25.8124 33.6399 25.9446 33.4074 26.1696L30.6921 28.8835L14.4075 12.6048L16.2441 10.7716C16.3627 10.6369 16.4528 10.4796 16.5091 10.3092C16.5654 10.1388 16.5866 9.95879 16.5716 9.77998C16.5566 9.60116 16.5055 9.42723 16.4216 9.26859C16.3377 9.10996 16.2226 8.96989 16.0832 8.8568L9.77885 4.38883C9.62311 4.26601 9.44128 4.18051 9.24732 4.13891C9.05336 4.0973 8.85244 4.1007 8.66 4.14883C8.45035 4.20641 8.25875 4.31622 8.10313 4.46797L4.50648 8.13937C4.30809 8.35087 4.18504 8.62187 4.15641 8.91037C4.12778 9.19886 4.19515 9.48874 4.3481 9.73508L8.90012 16.0336C9.33182 16.6183 10.2948 16.6975 10.816 16.1945L12.6526 14.4379L28.8554 30.635L26.1426 33.349C25.9068 33.5959 25.7753 33.9242 25.7753 34.2655C25.7753 34.6069 25.9068 34.9351 26.1426 35.1821L27.5808 36.5378L15.0461 49.066C11.0484 48.3001 6.80292 49.2498 3.71204 52.3366C2.13497 53.9172 1.00222 55.8851 0.427791 58.0422C-0.146642 60.1994 -0.142499 62.4697 0.439802 64.6248C0.695246 65.4341 1.88306 65.7533 2.51401 65.1814L8.97931 58.722L13.6897 60.3177L15.2862 65.0256L8.82093 71.4876C8.24873 72.1182 8.56549 73.3029 9.3778 73.5633C11.5345 74.1431 13.8059 74.1456 15.9639 73.5706C18.1218 72.9957 20.0905 71.8635 21.6723 70.2876C24.7632 67.1983 25.7084 62.955 24.9446 58.9594L35.6426 48.2669L56.8751 69.491C57.1223 69.7275 57.4513 69.8594 57.7934 69.8594C58.1356 69.8594 58.4646 69.7275 58.7118 69.491L61.3454 66.7771L63.182 64.9439L66.2167 61.9108L66.7736 61.3517L69.489 58.6402C69.7035 58.398 69.822 58.0856 69.822 57.762C69.822 57.4384 69.7035 57.126 69.489 56.8837L48.2539 35.6621L58.9519 24.9696C62.9496 25.7355 67.1951 24.7909 70.2859 21.699C71.8635 20.1187 72.9967 18.1509 73.5716 15.9937C74.1465 13.8366 74.1427 11.5661 73.5607 9.41083C73.3002 8.60149 72.1149 8.28235 71.484 8.85425L65.0187 15.3188L60.3083 13.7231L58.7118 9.0151L65.1771 2.55313C65.7493 1.92251 65.4325 0.737854 64.6202 0.477435C63.5278 0.172713 62.4003 0.0122051 61.2662 0ZM61.2662 2.55313C61.3709 2.55313 61.4782 2.62972 61.5855 2.63227L56.3974 7.81768C56.2356 7.98295 56.1207 8.18832 56.0646 8.41268C56.0085 8.63704 56.0131 8.87229 56.0781 9.09424L58.0732 15.1579C58.2009 15.5281 58.5023 15.8319 58.8727 15.9571L64.9395 17.951C65.1616 18.016 65.3969 18.0207 65.6214 17.9646C65.8459 17.9085 66.0514 17.7937 66.2167 17.6319L71.1647 12.6865C71.1596 15.3494 70.4545 18.0225 68.531 19.945C67.2696 21.2068 65.6981 22.1145 63.9745 22.577C62.2509 23.0395 60.4359 23.0405 58.7118 22.5799C58.5013 22.5294 58.2815 22.5321 58.0723 22.5879C57.8632 22.6436 57.6712 22.7505 57.5137 22.899L46.5015 33.9055C44.6496 31.955 40.1154 27.6019 40.1154 27.6019L51.1251 16.5187C51.2736 16.3614 51.3806 16.1695 51.4364 15.9604C51.4921 15.7514 51.4949 15.5317 51.4444 15.3213C50.9833 13.5981 50.9841 11.784 51.4469 10.0612C51.9096 8.33844 52.818 6.76778 54.0806 5.5071C55.9895 3.6097 58.574 2.54725 61.2662 2.55313ZM9.14024 7.10025L13.3704 10.0542L10.0982 13.3222L7.06092 9.1785L9.14024 7.10025ZM34.2836 28.8835L35.4842 30.0784L36.0411 30.6375L34.2836 32.4732L30.6921 36.0629L30.2144 35.6646C30.1656 35.6064 30.1118 35.5525 30.0535 35.5038L28.8554 34.3064L34.2836 28.8835ZM39.7144 30.6375L45.6202 36.5429C45.7122 36.6374 45.822 36.7191 45.9395 36.7804L66.8553 57.7645L65.0161 59.6002L37.9569 32.4732L39.7144 30.6375ZM36.1203 34.3089L63.182 61.3517L61.3454 63.1874L34.2862 36.1395L35.2415 35.1821L36.1203 34.3089ZM32.5287 37.8986L59.5905 64.9439L57.7538 66.7822L36.6005 45.7189C36.5754 45.6904 36.5489 45.6632 36.5213 45.6372L30.6921 39.7318L31.4099 38.9352L31.4916 38.8561L31.5708 38.7744L31.65 38.6978L32.5287 37.8986ZM27.5782 40.0509C27.6166 40.1643 27.6708 40.2717 27.7391 40.3701C27.7879 40.4284 27.8417 40.4822 27.9001 40.5309C27.8992 40.5573 27.8992 40.5837 27.9001 40.6101C27.9256 40.6108 27.9512 40.6108 27.9767 40.6101L33.8851 46.5154L22.8704 57.5245C22.7218 57.6819 22.6148 57.8738 22.5591 58.0828C22.5033 58.2919 22.5006 58.5116 22.5511 58.722C23.0125 60.4449 23.012 62.259 22.5497 63.9817C22.0874 65.7045 21.1796 67.2752 19.9174 68.5362C17.9888 70.4561 15.3194 71.1633 12.6526 71.1684L17.6006 66.2205C17.7624 66.0552 17.8773 65.8498 17.9334 65.6255C17.9895 65.4011 17.9849 65.1659 17.9199 64.9439L15.9248 58.8802C15.8602 58.6959 15.7547 58.5284 15.6163 58.3905C15.4778 58.2526 15.31 58.1477 15.1253 58.0837L9.05849 56.0897C8.8364 56.025 8.6011 56.0204 8.37668 56.0765C8.15226 56.1326 7.94677 56.2473 7.78127 56.4088L2.83332 61.3517C2.83842 58.6862 3.54345 56.0156 5.46695 54.0931C6.72857 52.8316 8.30005 51.9241 10.0236 51.4616C11.7471 50.9991 13.5621 50.998 15.2862 51.4583C15.4967 51.5088 15.7165 51.506 15.9257 51.4503C16.1348 51.3946 16.3268 51.2877 16.4843 51.1392L27.5782 40.0509Z" fill="#FFCD11"/>
</svg>
