<svg width="88" height="84" viewBox="0 0 88 84" fill="none" xmlns="http://www.w3.org/2000/svg">
<g clip-path="url(#clip0_137_50)">
<path d="M33 38.5C35.9008 38.5 38.7365 37.6789 41.1484 36.1406C43.5603 34.6022 45.4402 32.4157 46.5503 29.8576C47.6604 27.2994 47.9508 24.4845 47.3849 21.7687C46.819 19.053 45.4221 16.5584 43.3709 14.6005C41.3198 12.6426 38.7064 11.3092 35.8614 10.769C33.0163 10.2288 30.0673 10.5061 27.3874 11.5657C24.7074 12.6253 22.4167 14.4197 20.8052 16.722C19.1936 19.0243 18.3334 21.7311 18.3334 24.5C18.3334 28.213 19.8786 31.774 22.6291 34.3995C25.3797 37.025 29.1102 38.5 33 38.5ZM33 17.5C34.4504 17.5 35.8683 17.9105 37.0742 18.6797C38.2802 19.4489 39.2201 20.5421 39.7752 21.8212C40.3302 23.1003 40.4754 24.5078 40.1925 25.8656C39.9095 27.2235 39.2111 28.4708 38.1855 29.4498C37.1599 30.4287 35.8532 31.0954 34.4307 31.3655C33.0082 31.6356 31.5337 31.497 30.1937 30.9672C28.8537 30.4373 27.7084 29.5401 26.9026 28.389C26.0968 27.2379 25.6667 25.8845 25.6667 24.5C25.6667 22.6435 26.4393 20.863 27.8146 19.5503C29.1899 18.2375 31.0551 17.5 33 17.5ZM62.3334 45.5C64.509 45.5 66.6357 44.8842 68.4446 43.7304C70.2536 42.5767 71.6635 40.9368 72.496 39.0182C73.3286 37.0996 73.5465 34.9884 73.122 32.9516C72.6976 30.9148 71.6499 29.0438 70.1116 27.5754C68.5732 26.1069 66.6132 25.1069 64.4794 24.7018C62.3456 24.2966 60.1338 24.5046 58.1239 25.2993C56.1139 26.094 54.3959 27.4398 53.1872 29.1665C51.9785 30.8932 51.3334 32.9233 51.3334 35C51.3334 37.7848 52.4923 40.4555 54.5552 42.4246C56.6181 44.3938 59.416 45.5 62.3334 45.5ZM62.3334 31.5C63.0586 31.5 63.7675 31.7053 64.3705 32.0899C64.9734 32.4744 65.4434 33.0211 65.7209 33.6606C65.9985 34.3002 66.0711 35.0039 65.9296 35.6828C65.7881 36.3618 65.4389 36.9854 64.9261 37.4749C64.4133 37.9644 63.76 38.2977 63.0487 38.4328C62.3374 38.5678 61.6002 38.4985 60.9302 38.2336C60.2602 37.9687 59.6875 37.5201 59.2846 36.9445C58.8818 36.3689 58.6667 35.6922 58.6667 35C58.6667 34.0717 59.053 33.1815 59.7406 32.5251C60.4283 31.8688 61.3609 31.5 62.3334 31.5ZM62.3334 49C58.2701 49.0043 54.3234 50.297 51.1134 52.675C47.5219 49.2603 42.9516 46.9371 37.9787 45.9985C33.0059 45.0599 27.8532 45.5479 23.1705 47.401C18.4879 49.254 14.4849 52.3892 11.6664 56.411C8.84796 60.4329 7.34023 65.1613 7.33337 70C7.33337 70.9283 7.71968 71.8185 8.40732 72.4749C9.09495 73.1313 10.0276 73.5 11 73.5C11.9725 73.5 12.9051 73.1313 13.5928 72.4749C14.2804 71.8185 14.6667 70.9283 14.6667 70C14.6667 65.3587 16.5982 60.9075 20.0364 57.6256C23.4746 54.3438 28.1377 52.5 33 52.5C37.8623 52.5 42.5255 54.3438 45.9637 57.6256C49.4018 60.9075 51.3334 65.3587 51.3334 70C51.3334 70.9283 51.7197 71.8185 52.4073 72.4749C53.095 73.1313 54.0276 73.5 55 73.5C55.9725 73.5 56.9051 73.1313 57.5928 72.4749C58.2804 71.8185 58.6667 70.9283 58.6667 70C58.6755 65.8995 57.5903 61.8644 55.5134 58.275C57.1338 57.0528 59.0819 56.2906 61.1348 56.0758C63.1878 55.861 65.2626 56.2022 67.1219 57.0604C68.9812 57.9186 70.5498 59.2591 71.6483 60.9284C72.7468 62.5978 73.3308 64.5286 73.3334 66.5C73.3334 67.4283 73.7197 68.3185 74.4073 68.9749C75.0949 69.6313 76.0276 70 77 70C77.9725 70 78.9051 69.6313 79.5928 68.9749C80.2804 68.3185 80.6667 67.4283 80.6667 66.5C80.6667 61.8587 78.7352 57.4075 75.297 54.1256C71.8588 50.8438 67.1957 49 62.3334 49Z" fill="#FFCD11"/>
</g>
<defs>
<clipPath id="clip0_137_50">
<rect width="88" height="84" fill="white"/>
</clipPath>
</defs>
</svg>
