<svg xmlns="http://www.w3.org/2000/svg" xmlns:xlink="http://www.w3.org/1999/xlink" width="1920" zoomAndPan="magnify" viewBox="0 0 1440 809.999993" height="1080" preserveAspectRatio="xMidYMid meet" version="1.0"><defs><g/><clipPath id="2c0b5381ce"><path d="M 215.339844 252.925781 L 438.839844 252.925781 L 438.839844 690.925781 L 215.339844 690.925781 Z M 215.339844 252.925781 " clip-rule="nonzero"/></clipPath><clipPath id="311b2279bb"><path d="M 329 367 L 438.839844 367 L 438.839844 577 L 329 577 Z M 329 367 " clip-rule="nonzero"/></clipPath><clipPath id="dd5933d713"><path d="M 424 208 L 507 208 L 507 716 L 424 716 Z M 424 208 " clip-rule="nonzero"/></clipPath><clipPath id="0606401ab9"><path d="M 81.003906 354.011719 L 514.8125 -79.796875 L 899.300781 304.691406 L 465.492188 738.503906 Z M 81.003906 354.011719 " clip-rule="nonzero"/></clipPath><clipPath id="9ceec4331e"><path d="M 81.003906 354.011719 L 514.8125 -79.796875 L 899.300781 304.691406 L 465.492188 738.503906 Z M 81.003906 354.011719 " clip-rule="nonzero"/></clipPath><clipPath id="64a04f71af"><path d="M 81.003906 354.011719 L 514.8125 -79.796875 L 899.300781 304.691406 L 465.492188 738.503906 Z M 81.003906 354.011719 " clip-rule="nonzero"/></clipPath><clipPath id="d88c90b25e"><path d="M 279 54 L 653 54 L 653 197 L 279 197 Z M 279 54 " clip-rule="nonzero"/></clipPath><clipPath id="b45a9cac4d"><path d="M 81.003906 354.011719 L 514.8125 -79.796875 L 899.300781 304.691406 L 465.492188 738.503906 Z M 81.003906 354.011719 " clip-rule="nonzero"/></clipPath><clipPath id="6cfe224a54"><path d="M 81.003906 354.011719 L 514.8125 -79.796875 L 899.300781 304.691406 L 465.492188 738.503906 Z M 81.003906 354.011719 " clip-rule="nonzero"/></clipPath><clipPath id="209fde203b"><path d="M 81.003906 354.011719 L 514.8125 -79.796875 L 899.300781 304.691406 L 465.492188 738.503906 Z M 81.003906 354.011719 " clip-rule="nonzero"/></clipPath></defs><g clip-path="url(#2c0b5381ce)"><path fill="#f6a00e" d="M 631.960938 421.105469 L 602.671875 413.785156 L 594.632812 394.355469 L 610.175781 368.453125 C 610.992188 367.09375 611.6875 365.679688 612.269531 364.207031 C 612.851562 362.734375 613.304688 361.226562 613.632812 359.675781 C 613.960938 358.128906 614.160156 356.566406 614.230469 354.984375 C 614.300781 353.402344 614.238281 351.828125 614.042969 350.253906 C 613.851562 348.683594 613.527344 347.140625 613.078125 345.625 C 612.628906 344.105469 612.054688 342.636719 611.359375 341.214844 C 610.664062 339.792969 609.859375 338.4375 608.9375 337.148438 C 608.015625 335.863281 606.996094 334.660156 605.875 333.542969 L 573.015625 300.6875 C 571.898438 299.566406 570.699219 298.542969 569.410156 297.621094 C 568.121094 296.703125 566.769531 295.894531 565.347656 295.199219 C 563.925781 294.503906 562.453125 293.929688 560.9375 293.480469 C 559.417969 293.027344 557.875 292.707031 556.304688 292.511719 C 554.734375 292.320312 553.15625 292.257812 551.574219 292.328125 C 549.992188 292.394531 548.429688 292.59375 546.878906 292.925781 C 545.332031 293.253906 543.820312 293.710938 542.351562 294.292969 C 540.878906 294.871094 539.464844 295.570312 538.105469 296.390625 L 512.203125 311.925781 L 492.777344 303.878906 L 485.460938 274.566406 C 485.078125 273.03125 484.570312 271.539062 483.9375 270.085938 C 483.304688 268.636719 482.554688 267.246094 481.691406 265.917969 C 480.828125 264.59375 479.859375 263.34375 478.789062 262.179688 C 477.71875 261.011719 476.558594 259.941406 475.308594 258.96875 C 474.0625 257.996094 472.742188 257.132812 471.347656 256.378906 C 469.957031 255.625 468.511719 254.988281 467.015625 254.476562 C 465.515625 253.960938 463.988281 253.574219 462.425781 253.3125 C 460.863281 253.054688 459.289062 252.925781 457.707031 252.925781 L 411.257812 252.925781 C 409.675781 252.925781 408.101562 253.054688 406.542969 253.316406 C 404.980469 253.574219 403.449219 253.964844 401.953125 254.476562 C 400.457031 254.992188 399.011719 255.628906 397.617188 256.382812 C 396.226562 257.136719 394.90625 258 393.65625 258.976562 C 392.410156 259.949219 391.25 261.019531 390.179688 262.1875 C 389.109375 263.351562 388.144531 264.601562 387.28125 265.925781 C 386.417969 267.253906 385.667969 268.644531 385.035156 270.097656 C 384.402344 271.546875 383.894531 273.042969 383.511719 274.578125 L 376.199219 303.878906 L 356.769531 311.925781 L 330.886719 296.390625 C 329.527344 295.574219 328.113281 294.875 326.640625 294.296875 C 325.167969 293.714844 323.65625 293.261719 322.105469 292.933594 C 320.558594 292.605469 318.992188 292.40625 317.410156 292.335938 C 315.828125 292.269531 314.253906 292.332031 312.683594 292.523438 C 311.109375 292.71875 309.566406 293.039062 308.046875 293.488281 C 306.53125 293.9375 305.058594 294.511719 303.636719 295.207031 C 302.214844 295.898438 300.859375 296.707031 299.570312 297.625 C 298.28125 298.546875 297.078125 299.566406 295.957031 300.6875 L 263.09375 333.542969 C 261.972656 334.660156 260.953125 335.863281 260.03125 337.152344 C 259.113281 338.4375 258.304688 339.792969 257.609375 341.214844 C 256.914062 342.640625 256.339844 344.109375 255.890625 345.625 C 255.441406 347.144531 255.117188 348.6875 254.925781 350.257812 C 254.730469 351.832031 254.667969 353.40625 254.734375 354.988281 C 254.804688 356.570312 255.003906 358.136719 255.332031 359.683594 C 255.660156 361.234375 256.117188 362.742188 256.695312 364.214844 C 257.277344 365.6875 257.972656 367.105469 258.789062 368.460938 L 274.328125 394.355469 L 266.292969 413.785156 L 237.003906 421.105469 C 235.464844 421.488281 233.972656 421.996094 232.519531 422.625 C 231.066406 423.253906 229.675781 424.003906 228.347656 424.863281 C 227.019531 425.726562 225.773438 426.691406 224.605469 427.761719 C 223.4375 428.832031 222.367188 429.988281 221.390625 431.238281 C 220.417969 432.484375 219.554688 433.804688 218.796875 435.195312 C 218.042969 436.585938 217.40625 438.03125 216.894531 439.527344 C 216.378906 441.027344 215.992188 442.554688 215.730469 444.117188 C 215.46875 445.679688 215.339844 447.25 215.339844 448.835938 L 215.339844 495.300781 C 215.339844 496.882812 215.46875 498.457031 215.730469 500.015625 C 215.992188 501.578125 216.378906 503.109375 216.894531 504.605469 C 217.40625 506.101562 218.042969 507.546875 218.796875 508.9375 C 219.554688 510.332031 220.417969 511.648438 221.390625 512.898438 C 222.367188 514.144531 223.4375 515.304688 224.605469 516.375 C 225.773438 517.441406 227.019531 518.410156 228.347656 519.269531 C 229.675781 520.132812 231.066406 520.878906 232.519531 521.507812 C 233.972656 522.140625 235.464844 522.644531 237.003906 523.027344 L 266.292969 530.351562 L 274.332031 549.777344 L 258.789062 575.683594 C 257.972656 577.039062 257.273438 578.453125 256.695312 579.925781 C 256.113281 581.398438 255.660156 582.910156 255.332031 584.457031 C 255.003906 586.003906 254.804688 587.570312 254.734375 589.152344 C 254.664062 590.730469 254.726562 592.308594 254.921875 593.878906 C 255.113281 595.449219 255.4375 596.992188 255.886719 598.511719 C 256.335938 600.027344 256.910156 601.496094 257.605469 602.917969 C 258.300781 604.339844 259.105469 605.695312 260.027344 606.984375 C 260.945312 608.273438 261.96875 609.472656 263.085938 610.59375 L 295.949219 643.449219 C 297.066406 644.570312 298.269531 645.59375 299.554688 646.515625 C 300.84375 647.4375 302.199219 648.246094 303.621094 648.941406 C 305.042969 649.640625 306.511719 650.210938 308.03125 650.664062 C 309.546875 651.113281 311.09375 651.4375 312.664062 651.628906 C 314.234375 651.824219 315.8125 651.886719 317.394531 651.816406 C 318.976562 651.746094 320.539062 651.546875 322.089844 651.214844 C 323.636719 650.886719 325.148438 650.429688 326.621094 649.847656 C 328.09375 649.265625 329.503906 648.5625 330.859375 647.746094 L 356.765625 632.207031 L 376.191406 640.257812 L 383.507812 669.566406 C 383.890625 671.101562 384.398438 672.59375 385.03125 674.046875 C 385.664062 675.5 386.414062 676.886719 387.277344 678.214844 C 388.140625 679.542969 389.109375 680.789062 390.179688 681.953125 C 391.25 683.121094 392.410156 684.191406 393.65625 685.164062 C 394.90625 686.136719 396.226562 687.003906 397.617188 687.757812 C 399.011719 688.511719 400.453125 689.144531 401.953125 689.660156 C 403.449219 690.171875 404.980469 690.558594 406.542969 690.820312 C 408.101562 691.078125 409.675781 691.210938 411.257812 691.207031 L 457.707031 691.207031 C 459.289062 691.207031 460.863281 691.078125 462.425781 690.816406 C 463.988281 690.558594 465.515625 690.171875 467.011719 689.65625 C 468.511719 689.140625 469.957031 688.507812 471.347656 687.75 C 472.738281 686.996094 474.058594 686.132812 475.308594 685.160156 C 476.554688 684.183594 477.714844 683.113281 478.785156 681.949219 C 479.855469 680.78125 480.820312 679.535156 481.683594 678.207031 C 482.546875 676.878906 483.296875 675.488281 483.929688 674.039062 C 484.558594 672.585938 485.070312 671.09375 485.453125 669.554688 L 492.765625 640.257812 L 512.195312 632.207031 L 538.078125 647.746094 C 539.433594 648.566406 540.847656 649.265625 542.320312 649.847656 C 543.796875 650.433594 545.304688 650.890625 546.855469 651.222656 C 548.40625 651.550781 549.972656 651.753906 551.554688 651.824219 C 553.136719 651.890625 554.714844 651.832031 556.285156 651.636719 C 557.859375 651.445312 559.402344 651.121094 560.921875 650.667969 C 562.441406 650.21875 563.914062 649.644531 565.335938 648.949219 C 566.757812 648.25 568.113281 647.441406 569.402344 646.519531 C 570.6875 645.59375 571.890625 644.570312 573.007812 643.449219 L 605.871094 610.601562 C 606.992188 609.484375 608.011719 608.28125 608.933594 606.992188 C 609.855469 605.703125 610.664062 604.347656 611.359375 602.925781 C 612.054688 601.503906 612.628906 600.03125 613.078125 598.515625 C 613.527344 596.996094 613.851562 595.453125 614.042969 593.878906 C 614.238281 592.308594 614.300781 590.730469 614.230469 589.148438 C 614.164062 587.566406 613.964844 586 613.636719 584.453125 C 613.304688 582.902344 612.851562 581.390625 612.269531 579.917969 C 611.691406 578.445312 610.992188 577.03125 610.175781 575.671875 L 594.636719 549.777344 L 602.675781 530.351562 L 631.96875 523.027344 C 633.503906 522.644531 635 522.140625 636.449219 521.507812 C 637.902344 520.878906 639.292969 520.132812 640.621094 519.269531 C 641.949219 518.40625 643.195312 517.441406 644.363281 516.371094 C 645.53125 515.300781 646.601562 514.144531 647.574219 512.894531 C 648.550781 511.648438 649.414062 510.328125 650.167969 508.9375 C 650.921875 507.546875 651.558594 506.101562 652.074219 504.605469 C 652.585938 503.109375 652.972656 501.578125 653.234375 500.015625 C 653.496094 498.457031 653.625 496.882812 653.621094 495.300781 L 653.621094 448.835938 C 653.625 447.25 653.496094 445.679688 653.234375 444.117188 C 652.972656 442.554688 652.585938 441.027344 652.070312 439.527344 C 651.558594 438.03125 650.921875 436.585938 650.167969 435.195312 C 649.410156 433.804688 648.546875 432.484375 647.574219 431.238281 C 646.597656 429.988281 645.527344 428.832031 644.359375 427.761719 C 643.191406 426.691406 641.945312 425.726562 640.617188 424.863281 C 639.289062 424.003906 637.898438 423.253906 636.445312 422.625 C 634.992188 421.996094 633.5 421.488281 631.960938 421.105469 Z M 634.566406 495.300781 C 634.566406 495.828125 634.523438 496.351562 634.4375 496.871094 C 634.351562 497.394531 634.222656 497.902344 634.050781 498.402344 C 633.878906 498.902344 633.667969 499.382812 633.414062 499.847656 C 633.164062 500.3125 632.875 500.75 632.550781 501.167969 C 632.226562 501.585938 631.867188 501.96875 631.480469 502.328125 C 631.089844 502.683594 630.675781 503.007812 630.230469 503.292969 C 629.789062 503.582031 629.324219 503.832031 628.839844 504.042969 C 628.355469 504.253906 627.859375 504.421875 627.347656 504.550781 L 593.40625 513.035156 C 592.683594 513.214844 591.992188 513.476562 591.332031 513.816406 C 590.671875 514.160156 590.058594 514.574219 589.492188 515.058594 C 588.929688 515.546875 588.429688 516.089844 587.992188 516.691406 C 587.558594 517.296875 587.195312 517.941406 586.914062 518.628906 L 575.191406 546.921875 C 574.90625 547.613281 574.703125 548.324219 574.585938 549.058594 C 574.46875 549.792969 574.4375 550.53125 574.492188 551.273438 C 574.546875 552.015625 574.6875 552.742188 574.914062 553.453125 C 575.136719 554.164062 575.441406 554.835938 575.824219 555.476562 L 593.835938 585.472656 C 594.109375 585.925781 594.339844 586.398438 594.535156 586.890625 C 594.726562 587.378906 594.878906 587.882812 594.988281 588.402344 C 595.097656 588.917969 595.164062 589.441406 595.1875 589.96875 C 595.210938 590.496094 595.191406 591.019531 595.125 591.542969 C 595.0625 592.070312 594.953125 592.582031 594.804688 593.089844 C 594.652344 593.597656 594.460938 594.085938 594.230469 594.5625 C 594 595.035156 593.730469 595.488281 593.421875 595.917969 C 593.117188 596.347656 592.777344 596.75 592.402344 597.121094 L 559.539062 629.976562 C 559.167969 630.351562 558.765625 630.691406 558.335938 631 C 557.90625 631.308594 557.453125 631.578125 556.980469 631.808594 C 556.503906 632.042969 556.015625 632.234375 555.507812 632.382812 C 555.003906 632.535156 554.488281 632.640625 553.960938 632.707031 C 553.4375 632.769531 552.910156 632.789062 552.382812 632.769531 C 551.855469 632.746094 551.335938 632.675781 550.816406 632.566406 C 550.300781 632.457031 549.796875 632.304688 549.304688 632.109375 C 548.816406 631.914062 548.34375 631.683594 547.890625 631.410156 L 517.871094 613.402344 C 517.234375 613.019531 516.558594 612.714844 515.851562 612.488281 C 515.140625 612.261719 514.417969 612.121094 513.675781 612.066406 C 512.933594 612.011719 512.195312 612.042969 511.460938 612.164062 C 510.726562 612.28125 510.015625 612.484375 509.328125 612.769531 L 481.042969 624.484375 C 480.355469 624.769531 479.710938 625.132812 479.105469 625.566406 C 478.503906 626.003906 477.957031 626.503906 477.472656 627.066406 C 476.984375 627.632812 476.570312 628.246094 476.226562 628.90625 C 475.882812 629.566406 475.621094 630.257812 475.441406 630.980469 L 466.957031 664.933594 C 466.828125 665.445312 466.660156 665.941406 466.449219 666.425781 C 466.238281 666.910156 465.988281 667.375 465.703125 667.816406 C 465.414062 668.261719 465.09375 668.675781 464.738281 669.066406 C 464.378906 669.457031 463.992188 669.8125 463.578125 670.136719 C 463.160156 670.460938 462.722656 670.75 462.257812 671.003906 C 461.792969 671.253906 461.3125 671.464844 460.8125 671.636719 C 460.3125 671.808594 459.800781 671.9375 459.28125 672.023438 C 458.761719 672.109375 458.234375 672.152344 457.707031 672.152344 L 411.257812 672.152344 C 410.730469 672.152344 410.207031 672.109375 409.6875 672.023438 C 409.164062 671.9375 408.65625 671.808594 408.15625 671.636719 C 407.65625 671.46875 407.175781 671.257812 406.710938 671.003906 C 406.246094 670.753906 405.808594 670.464844 405.390625 670.140625 C 404.976562 669.816406 404.589844 669.460938 404.230469 669.070312 C 403.875 668.683594 403.550781 668.265625 403.265625 667.824219 C 402.976562 667.382812 402.726562 666.917969 402.515625 666.433594 C 402.304688 665.953125 402.136719 665.453125 402.007812 664.941406 L 393.523438 630.980469 C 393.34375 630.257812 393.082031 629.566406 392.738281 628.90625 C 392.394531 628.246094 391.980469 627.632812 391.492188 627.066406 C 391.007812 626.503906 390.460938 626.003906 389.859375 625.566406 C 389.253906 625.132812 388.609375 624.769531 387.921875 624.484375 L 359.636719 612.769531 C 358.46875 612.289062 357.253906 612.046875 355.988281 612.042969 C 354.230469 612.039062 352.597656 612.492188 351.09375 613.402344 L 321.0625 631.40625 C 320.609375 631.679688 320.140625 631.914062 319.648438 632.109375 C 319.160156 632.300781 318.65625 632.453125 318.140625 632.5625 C 317.625 632.675781 317.101562 632.742188 316.574219 632.765625 C 316.050781 632.785156 315.523438 632.765625 315 632.703125 C 314.476562 632.636719 313.964844 632.53125 313.457031 632.378906 C 312.953125 632.230469 312.464844 632.039062 311.988281 631.804688 C 311.515625 631.574219 311.066406 631.304688 310.636719 630.996094 C 310.207031 630.6875 309.808594 630.347656 309.4375 629.972656 L 276.566406 597.121094 C 276.191406 596.746094 275.851562 596.347656 275.546875 595.917969 C 275.242188 595.488281 274.972656 595.035156 274.738281 594.5625 C 274.507812 594.085938 274.316406 593.597656 274.167969 593.089844 C 274.019531 592.585938 273.910156 592.070312 273.847656 591.546875 C 273.78125 591.023438 273.761719 590.5 273.785156 589.972656 C 273.808594 589.445312 273.871094 588.921875 273.980469 588.40625 C 274.089844 587.890625 274.242188 587.386719 274.4375 586.894531 C 274.628906 586.40625 274.863281 585.933594 275.132812 585.480469 L 293.144531 555.472656 C 293.527344 554.835938 293.832031 554.160156 294.054688 553.449219 C 294.28125 552.742188 294.421875 552.015625 294.476562 551.273438 C 294.53125 550.53125 294.5 549.792969 294.382812 549.054688 C 294.261719 548.320312 294.0625 547.609375 293.777344 546.921875 L 282.054688 518.628906 C 281.769531 517.941406 281.410156 517.292969 280.972656 516.691406 C 280.539062 516.085938 280.039062 515.542969 279.472656 515.058594 C 278.910156 514.574219 278.296875 514.160156 277.632812 513.816406 C 276.972656 513.476562 276.28125 513.214844 275.558594 513.035156 L 241.613281 504.550781 C 241.101562 504.421875 240.605469 504.253906 240.121094 504.042969 C 239.636719 503.832031 239.171875 503.582031 238.730469 503.296875 C 238.289062 503.007812 237.871094 502.683594 237.484375 502.328125 C 237.09375 501.972656 236.738281 501.585938 236.414062 501.167969 C 236.089844 500.753906 235.800781 500.3125 235.546875 499.847656 C 235.296875 499.382812 235.085938 498.902344 234.914062 498.402344 C 234.742188 497.902344 234.613281 497.394531 234.527344 496.871094 C 234.441406 496.351562 234.398438 495.828125 234.398438 495.300781 L 234.398438 448.835938 C 234.398438 448.304688 234.441406 447.78125 234.527344 447.261719 C 234.613281 446.742188 234.742188 446.230469 234.914062 445.730469 C 235.085938 445.230469 235.296875 444.75 235.550781 444.285156 C 235.800781 443.824219 236.089844 443.382812 236.414062 442.964844 C 236.738281 442.550781 237.097656 442.164062 237.484375 441.808594 C 237.875 441.449219 238.289062 441.128906 238.734375 440.839844 C 239.175781 440.550781 239.640625 440.304688 240.125 440.09375 C 240.605469 439.882812 241.105469 439.710938 241.617188 439.585938 L 275.558594 431.097656 C 276.28125 430.917969 276.972656 430.65625 277.632812 430.316406 C 278.292969 429.972656 278.90625 429.558594 279.472656 429.074219 C 280.035156 428.589844 280.535156 428.042969 280.972656 427.441406 C 281.40625 426.839844 281.769531 426.191406 282.050781 425.503906 L 293.773438 397.210938 C 294.058594 396.523438 294.261719 395.8125 294.378906 395.078125 C 294.496094 394.339844 294.527344 393.601562 294.472656 392.859375 C 294.417969 392.117188 294.277344 391.394531 294.054688 390.683594 C 293.832031 389.972656 293.527344 389.300781 293.144531 388.660156 L 275.132812 358.664062 C 274.859375 358.210938 274.628906 357.738281 274.433594 357.246094 C 274.242188 356.753906 274.089844 356.25 273.980469 355.734375 C 273.871094 355.21875 273.804688 354.695312 273.78125 354.167969 C 273.757812 353.640625 273.777344 353.117188 273.84375 352.589844 C 273.90625 352.066406 274.015625 351.550781 274.164062 351.046875 C 274.316406 350.539062 274.503906 350.050781 274.738281 349.574219 C 274.96875 349.101562 275.238281 348.648438 275.546875 348.21875 C 275.851562 347.789062 276.191406 347.386719 276.566406 347.015625 L 309.429688 314.160156 C 309.800781 313.785156 310.203125 313.445312 310.632812 313.136719 C 311.0625 312.832031 311.515625 312.5625 311.988281 312.328125 C 312.464844 312.097656 312.953125 311.90625 313.460938 311.753906 C 313.964844 311.605469 314.480469 311.496094 315.007812 311.433594 C 315.53125 311.367188 316.054688 311.347656 316.585938 311.371094 C 317.113281 311.394531 317.632812 311.460938 318.152344 311.570312 C 318.667969 311.679688 319.171875 311.832031 319.664062 312.027344 C 320.152344 312.222656 320.625 312.453125 321.078125 312.726562 L 351.09375 330.730469 C 351.730469 331.113281 352.40625 331.417969 353.113281 331.644531 C 353.824219 331.871094 354.546875 332.011719 355.289062 332.066406 C 356.03125 332.121094 356.769531 332.089844 357.503906 331.96875 C 358.238281 331.851562 358.949219 331.648438 359.636719 331.363281 L 387.921875 319.648438 C 388.609375 319.363281 389.253906 319.003906 389.859375 318.566406 C 390.460938 318.128906 391.007812 317.628906 391.492188 317.066406 C 391.980469 316.503906 392.394531 315.890625 392.738281 315.230469 C 393.082031 314.566406 393.34375 313.875 393.523438 313.152344 L 402.007812 279.203125 C 402.136719 278.691406 402.304688 278.191406 402.515625 277.707031 C 402.726562 277.222656 402.976562 276.757812 403.261719 276.316406 C 403.550781 275.871094 403.871094 275.457031 404.226562 275.066406 C 404.585938 274.679688 404.972656 274.320312 405.386719 273.996094 C 405.804688 273.671875 406.246094 273.382812 406.707031 273.132812 C 407.171875 272.878906 407.65625 272.667969 408.15625 272.496094 C 408.652344 272.324219 409.164062 272.195312 409.683594 272.109375 C 410.207031 272.023438 410.730469 271.980469 411.257812 271.980469 L 457.707031 271.980469 C 458.234375 271.980469 458.757812 272.023438 459.28125 272.109375 C 459.800781 272.195312 460.308594 272.324219 460.808594 272.496094 C 461.308594 272.667969 461.789062 272.878906 462.253906 273.128906 C 462.71875 273.378906 463.160156 273.667969 463.574219 273.992188 C 463.992188 274.316406 464.378906 274.675781 464.734375 275.0625 C 465.089844 275.453125 465.414062 275.867188 465.699219 276.308594 C 465.988281 276.753906 466.238281 277.214844 466.449219 277.699219 C 466.660156 278.183594 466.828125 278.679688 466.957031 279.191406 L 475.441406 313.152344 C 475.621094 313.875 475.882812 314.566406 476.226562 315.230469 C 476.570312 315.890625 476.984375 316.503906 477.472656 317.066406 C 477.957031 317.628906 478.503906 318.128906 479.105469 318.566406 C 479.710938 319.003906 480.355469 319.363281 481.042969 319.648438 L 509.328125 331.363281 C 510.015625 331.648438 510.726562 331.851562 511.460938 331.96875 C 512.195312 332.089844 512.933594 332.121094 513.675781 332.066406 C 514.417969 332.011719 515.140625 331.871094 515.851562 331.644531 C 516.558594 331.417969 517.234375 331.113281 517.871094 330.730469 L 547.902344 312.726562 C 548.355469 312.457031 548.824219 312.222656 549.316406 312.027344 C 549.808594 311.835938 550.308594 311.683594 550.824219 311.574219 C 551.339844 311.464844 551.863281 311.398438 552.386719 311.375 C 552.914062 311.351562 553.441406 311.371094 553.964844 311.4375 C 554.484375 311.5 555 311.609375 555.503906 311.757812 C 556.011719 311.910156 556.5 312.101562 556.972656 312.332031 C 557.449219 312.5625 557.898438 312.832031 558.328125 313.140625 C 558.753906 313.445312 559.15625 313.785156 559.527344 314.160156 L 592.390625 347.015625 C 592.765625 347.386719 593.105469 347.789062 593.410156 348.21875 C 593.714844 348.648438 593.984375 349.097656 594.21875 349.574219 C 594.449219 350.046875 594.640625 350.539062 594.789062 351.042969 C 594.9375 351.546875 595.046875 352.0625 595.109375 352.585938 C 595.175781 353.109375 595.195312 353.636719 595.171875 354.164062 C 595.148438 354.691406 595.085938 355.210938 594.976562 355.726562 C 594.863281 356.242188 594.714844 356.746094 594.519531 357.238281 C 594.328125 357.730469 594.09375 358.199219 593.824219 358.652344 L 575.820312 388.660156 C 575.4375 389.300781 575.132812 389.972656 574.910156 390.683594 C 574.683594 391.394531 574.542969 392.117188 574.488281 392.863281 C 574.433594 393.605469 574.464844 394.34375 574.582031 395.078125 C 574.703125 395.8125 574.902344 396.523438 575.1875 397.210938 L 586.910156 425.507812 C 587.195312 426.195312 587.554688 426.839844 587.992188 427.441406 C 588.425781 428.046875 588.925781 428.589844 589.492188 429.078125 C 590.054688 429.5625 590.667969 429.976562 591.332031 430.316406 C 591.992188 430.660156 592.683594 430.917969 593.40625 431.097656 L 627.351562 439.582031 C 627.863281 439.710938 628.359375 439.878906 628.84375 440.089844 C 629.328125 440.300781 629.792969 440.550781 630.234375 440.839844 C 630.679688 441.125 631.09375 441.449219 631.484375 441.804688 C 631.871094 442.160156 632.230469 442.546875 632.554688 442.964844 C 632.878906 443.378906 633.167969 443.820312 633.417969 444.285156 C 633.671875 444.75 633.882812 445.230469 634.054688 445.730469 C 634.226562 446.230469 634.355469 446.738281 634.441406 447.257812 C 634.527344 447.78125 634.570312 448.304688 634.570312 448.832031 Z M 634.566406 495.300781 " fill-opacity="1" fill-rule="nonzero"/></g><g clip-path="url(#311b2279bb)"><path fill="#f6a00e" d="M 434.480469 367.261719 C 432.765625 367.261719 431.054688 367.304688 429.339844 367.386719 C 427.625 367.472656 425.917969 367.597656 424.210938 367.765625 C 422.503906 367.933594 420.800781 368.144531 419.105469 368.394531 C 417.40625 368.648438 415.71875 368.941406 414.035156 369.273438 C 412.351562 369.609375 410.679688 369.984375 409.015625 370.402344 C 407.351562 370.820312 405.699219 371.277344 404.058594 371.773438 C 402.417969 372.273438 400.789062 372.808594 399.175781 373.386719 C 397.558594 373.964844 395.960938 374.582031 394.375 375.238281 C 392.789062 375.894531 391.222656 376.589844 389.671875 377.324219 C 388.121094 378.054688 386.589844 378.828125 385.078125 379.636719 C 383.5625 380.445312 382.074219 381.289062 380.601562 382.171875 C 379.128906 383.054688 377.679688 383.972656 376.253906 384.921875 C 374.828125 385.875 373.425781 386.863281 372.050781 387.886719 C 370.671875 388.90625 369.320312 389.960938 367.992188 391.050781 C 366.667969 392.140625 365.371094 393.257812 364.097656 394.410156 C 362.828125 395.5625 361.585938 396.746094 360.371094 397.957031 C 359.160156 399.171875 357.976562 400.414062 356.824219 401.683594 C 355.675781 402.953125 354.554688 404.253906 353.464844 405.578125 C 352.378906 406.90625 351.324219 408.257812 350.300781 409.632812 C 349.277344 411.011719 348.292969 412.414062 347.339844 413.839844 C 346.386719 415.265625 345.46875 416.714844 344.585938 418.1875 C 343.703125 419.65625 342.859375 421.148438 342.050781 422.660156 C 341.242188 424.175781 340.472656 425.707031 339.738281 427.257812 C 339.003906 428.808594 338.308594 430.375 337.652344 431.960938 C 336.996094 433.542969 336.378906 435.144531 335.800781 436.757812 C 335.226562 438.375 334.6875 440.003906 334.1875 441.644531 C 333.691406 443.285156 333.234375 444.9375 332.816406 446.601562 C 332.398438 448.265625 332.023438 449.9375 331.691406 451.621094 C 331.355469 453.300781 331.0625 454.992188 330.808594 456.6875 C 330.558594 458.386719 330.347656 460.085938 330.179688 461.792969 C 330.011719 463.5 329.886719 465.210938 329.800781 466.925781 C 329.71875 468.636719 329.675781 470.351562 329.675781 472.066406 C 329.675781 473.78125 329.71875 475.496094 329.800781 477.210938 C 329.886719 478.921875 330.011719 480.632812 330.179688 482.339844 C 330.347656 484.046875 330.558594 485.75 330.808594 487.445312 C 331.0625 489.140625 331.355469 490.832031 331.691406 492.515625 C 332.023438 494.195312 332.398438 495.867188 332.816406 497.53125 C 333.234375 499.195312 333.691406 500.847656 334.1875 502.492188 C 334.6875 504.132812 335.226562 505.761719 335.800781 507.375 C 336.378906 508.992188 336.996094 510.589844 337.652344 512.175781 C 338.308594 513.757812 339.003906 515.328125 339.738281 516.878906 C 340.472656 518.429688 341.242188 519.960938 342.050781 521.472656 C 342.859375 522.984375 343.703125 524.476562 344.585938 525.949219 C 345.46875 527.417969 346.386719 528.867188 347.339844 530.292969 C 348.292969 531.71875 349.277344 533.121094 350.300781 534.5 C 351.324219 535.878906 352.378906 537.230469 353.464844 538.554688 C 354.554688 539.882812 355.675781 541.179688 356.824219 542.449219 C 357.976562 543.722656 359.160156 544.964844 360.371094 546.175781 C 361.585938 547.390625 362.828125 548.570312 364.097656 549.722656 C 365.371094 550.875 366.667969 551.996094 367.992188 553.082031 C 369.320312 554.171875 370.671875 555.226562 372.050781 556.25 C 373.425781 557.269531 374.828125 558.257812 376.253906 559.210938 C 377.679688 560.164062 379.128906 561.082031 380.601562 561.960938 C 382.074219 562.84375 383.5625 563.691406 385.078125 564.5 C 386.589844 565.308594 388.121094 566.078125 389.671875 566.8125 C 391.222656 567.542969 392.789062 568.238281 394.375 568.894531 C 395.960938 569.550781 397.558594 570.167969 399.175781 570.746094 C 400.789062 571.324219 402.417969 571.863281 404.058594 572.359375 C 405.699219 572.859375 407.351562 573.316406 409.015625 573.734375 C 410.679688 574.148438 412.351562 574.523438 414.035156 574.859375 C 415.71875 575.195312 417.40625 575.488281 419.105469 575.738281 C 420.800781 575.992188 422.503906 576.199219 424.210938 576.367188 C 425.917969 576.535156 427.625 576.664062 429.339844 576.746094 C 431.054688 576.832031 432.765625 576.875 434.480469 576.875 C 436.199219 576.875 437.910156 576.832031 439.625 576.746094 C 441.339844 576.664062 443.046875 576.535156 444.753906 576.367188 C 446.460938 576.199219 448.164062 575.992188 449.859375 575.738281 C 451.558594 575.488281 453.246094 575.195312 454.929688 574.859375 C 456.609375 574.523438 458.285156 574.148438 459.949219 573.734375 C 461.613281 573.316406 463.265625 572.859375 464.90625 572.359375 C 466.546875 571.863281 468.175781 571.324219 469.789062 570.746094 C 471.40625 570.167969 473.003906 569.550781 474.589844 568.894531 C 476.175781 568.238281 477.742188 567.542969 479.292969 566.8125 C 480.84375 566.078125 482.375 565.308594 483.886719 564.5 C 485.398438 563.691406 486.890625 562.84375 488.363281 561.960938 C 489.835938 561.082031 491.285156 560.164062 492.710938 559.210938 C 494.136719 558.257812 495.539062 557.269531 496.914062 556.25 C 498.292969 555.226562 499.644531 554.171875 500.972656 553.082031 C 502.296875 551.996094 503.59375 550.875 504.867188 549.722656 C 506.136719 548.570312 507.378906 547.390625 508.589844 546.175781 C 509.804688 544.964844 510.988281 543.722656 512.140625 542.449219 C 513.289062 541.179688 514.410156 539.882812 515.5 538.554688 C 516.585938 537.230469 517.640625 535.878906 518.664062 534.5 C 519.683594 533.121094 520.671875 531.71875 521.625 530.292969 C 522.578125 528.867188 523.496094 527.417969 524.378906 525.949219 C 525.257812 524.476562 526.105469 522.984375 526.914062 521.472656 C 527.722656 519.960938 528.492188 518.429688 529.226562 516.878906 C 529.960938 515.328125 530.65625 513.757812 531.3125 512.175781 C 531.96875 510.589844 532.585938 508.992188 533.160156 507.375 C 533.738281 505.761719 534.277344 504.132812 534.777344 502.492188 C 535.273438 500.847656 535.730469 499.195312 536.148438 497.53125 C 536.566406 495.867188 536.941406 494.195312 537.273438 492.515625 C 537.609375 490.832031 537.902344 489.140625 538.15625 487.445312 C 538.40625 485.75 538.617188 484.046875 538.785156 482.339844 C 538.953125 480.632812 539.078125 478.921875 539.164062 477.210938 C 539.246094 475.496094 539.289062 473.78125 539.289062 472.066406 C 539.285156 470.351562 539.242188 468.640625 539.15625 466.925781 C 539.070312 465.214844 538.941406 463.503906 538.773438 461.796875 C 538.601562 460.09375 538.390625 458.390625 538.136719 456.695312 C 537.886719 455 537.589844 453.308594 537.253906 451.628906 C 536.917969 449.949219 536.542969 448.277344 536.125 446.613281 C 535.707031 444.949219 535.246094 443.296875 534.746094 441.65625 C 534.25 440.015625 533.710938 438.390625 533.132812 436.777344 C 532.550781 435.160156 531.933594 433.5625 531.277344 431.980469 C 530.621094 430.394531 529.925781 428.828125 529.191406 427.277344 C 528.457031 425.730469 527.683594 424.199219 526.875 422.6875 C 526.066406 421.175781 525.222656 419.683594 524.339844 418.214844 C 523.457031 416.742188 522.539062 415.292969 521.585938 413.871094 C 520.632812 412.445312 519.648438 411.042969 518.625 409.664062 C 517.601562 408.289062 516.546875 406.9375 515.460938 405.613281 C 514.371094 404.289062 513.253906 402.988281 512.101562 401.71875 C 510.949219 400.449219 509.765625 399.207031 508.554688 397.996094 C 507.34375 396.78125 506.101562 395.601562 504.832031 394.449219 C 503.558594 393.296875 502.261719 392.175781 500.9375 391.089844 C 499.613281 390 498.261719 388.945312 496.882812 387.925781 C 495.507812 386.902344 494.105469 385.914062 492.679688 384.960938 C 491.253906 384.007812 489.804688 383.089844 488.335938 382.210938 C 486.867188 381.328125 485.375 380.480469 483.863281 379.671875 C 482.351562 378.863281 480.820312 378.09375 479.269531 377.359375 C 477.722656 376.625 476.152344 375.929688 474.570312 375.273438 C 472.988281 374.613281 471.386719 373.996094 469.773438 373.417969 C 468.160156 372.839844 466.53125 372.300781 464.890625 371.800781 C 463.25 371.304688 461.601562 370.84375 459.9375 370.425781 C 458.273438 370.007812 456.601562 369.632812 454.921875 369.296875 C 453.238281 368.960938 451.550781 368.664062 449.855469 368.410156 C 448.160156 368.15625 446.457031 367.945312 444.75 367.777344 C 443.046875 367.605469 441.335938 367.480469 439.625 367.394531 C 437.910156 367.308594 436.195312 367.261719 434.480469 367.261719 Z M 434.480469 557.816406 C 433.078125 557.816406 431.675781 557.785156 430.273438 557.714844 C 428.875 557.644531 427.472656 557.542969 426.078125 557.40625 C 424.679688 557.265625 423.289062 557.09375 421.898438 556.890625 C 420.511719 556.683594 419.128906 556.445312 417.753906 556.171875 C 416.375 555.894531 415.007812 555.589844 413.648438 555.246094 C 412.285156 554.90625 410.933594 554.53125 409.589844 554.125 C 408.246094 553.71875 406.914062 553.277344 405.59375 552.804688 C 404.273438 552.332031 402.964844 551.828125 401.667969 551.289062 C 400.371094 550.753906 399.085938 550.183594 397.820312 549.585938 C 396.550781 548.984375 395.296875 548.355469 394.058594 547.691406 C 392.820312 547.03125 391.601562 546.339844 390.398438 545.617188 C 389.195312 544.894531 388.007812 544.144531 386.839844 543.367188 C 385.675781 542.585938 384.527344 541.777344 383.402344 540.941406 C 382.273438 540.105469 381.167969 539.242188 380.082031 538.351562 C 378.996094 537.464844 377.933594 536.546875 376.894531 535.605469 C 375.855469 534.660156 374.839844 533.695312 373.847656 532.703125 C 372.855469 531.710938 371.886719 530.695312 370.945312 529.652344 C 370.003906 528.613281 369.085938 527.550781 368.195312 526.464844 C 367.304688 525.382812 366.441406 524.277344 365.605469 523.148438 C 364.769531 522.023438 363.960938 520.875 363.183594 519.707031 C 362.402344 518.539062 361.652344 517.355469 360.929688 516.152344 C 360.210938 514.949219 359.519531 513.726562 358.855469 512.488281 C 358.195312 511.253906 357.566406 510 356.964844 508.730469 C 356.363281 507.460938 355.796875 506.179688 355.257812 504.882812 C 354.722656 503.585938 354.21875 502.277344 353.746094 500.957031 C 353.273438 499.632812 352.832031 498.300781 352.425781 496.960938 C 352.015625 495.617188 351.640625 494.265625 351.300781 492.902344 C 350.960938 491.542969 350.652344 490.171875 350.378906 488.796875 C 350.105469 487.417969 349.867188 486.039062 349.660156 484.648438 C 349.453125 483.261719 349.28125 481.867188 349.144531 480.472656 C 349.007812 479.074219 348.902344 477.675781 348.835938 476.273438 C 348.765625 474.871094 348.730469 473.46875 348.730469 472.066406 C 348.730469 470.664062 348.765625 469.261719 348.835938 467.859375 C 348.902344 466.457031 349.007812 465.058594 349.144531 463.660156 C 349.28125 462.265625 349.453125 460.875 349.660156 459.484375 C 349.867188 458.097656 350.105469 456.714844 350.378906 455.339844 C 350.652344 453.960938 350.960938 452.59375 351.300781 451.230469 C 351.640625 449.871094 352.015625 448.519531 352.425781 447.175781 C 352.832031 445.832031 353.273438 444.5 353.746094 443.179688 C 354.21875 441.855469 354.722656 440.546875 355.257812 439.25 C 355.796875 437.957031 356.363281 436.671875 356.964844 435.402344 C 357.566406 434.136719 358.195312 432.882812 358.855469 431.644531 C 359.519531 430.40625 360.210938 429.1875 360.929688 427.984375 C 361.652344 426.777344 362.402344 425.59375 363.183594 424.425781 C 363.960938 423.257812 364.769531 422.113281 365.605469 420.984375 C 366.441406 419.859375 367.304688 418.753906 368.195312 417.667969 C 369.085938 416.582031 370.003906 415.519531 370.945312 414.480469 C 371.886719 413.441406 372.855469 412.425781 373.847656 411.433594 C 374.839844 410.441406 375.855469 409.472656 376.894531 408.53125 C 377.933594 407.585938 378.996094 406.671875 380.082031 405.78125 C 381.167969 404.890625 382.273438 404.027344 383.402344 403.191406 C 384.527344 402.355469 385.675781 401.546875 386.839844 400.769531 C 388.007812 399.988281 389.195312 399.238281 390.398438 398.515625 C 391.601562 397.792969 392.820312 397.101562 394.058594 396.441406 C 395.296875 395.78125 396.550781 395.148438 397.820312 394.550781 C 399.085938 393.949219 400.371094 393.378906 401.667969 392.84375 C 402.964844 392.308594 404.273438 391.800781 405.59375 391.328125 C 406.914062 390.855469 408.246094 390.417969 409.589844 390.007812 C 410.933594 389.601562 412.285156 389.226562 413.648438 388.886719 C 415.007812 388.546875 416.375 388.238281 417.753906 387.964844 C 419.128906 387.691406 420.511719 387.449219 421.898438 387.246094 C 423.289062 387.039062 424.679688 386.867188 426.078125 386.730469 C 427.472656 386.59375 428.875 386.488281 430.273438 386.417969 C 431.675781 386.351562 433.078125 386.316406 434.480469 386.316406 C 435.886719 386.316406 437.289062 386.351562 438.691406 386.417969 C 440.089844 386.488281 441.492188 386.59375 442.886719 386.730469 C 444.285156 386.867188 445.675781 387.039062 447.066406 387.246094 C 448.453125 387.449219 449.835938 387.691406 451.210938 387.964844 C 452.585938 388.238281 453.957031 388.546875 455.316406 388.886719 C 456.679688 389.226562 458.03125 389.601562 459.375 390.007812 C 460.71875 390.417969 462.050781 390.855469 463.371094 391.328125 C 464.691406 391.800781 466 392.308594 467.296875 392.84375 C 468.59375 393.382812 469.875 393.949219 471.144531 394.550781 C 472.414062 395.148438 473.667969 395.78125 474.90625 396.441406 C 476.140625 397.101562 477.363281 397.792969 478.566406 398.515625 C 479.769531 399.238281 480.957031 399.988281 482.121094 400.769531 C 483.289062 401.546875 484.4375 402.355469 485.5625 403.191406 C 486.691406 404.027344 487.796875 404.890625 488.882812 405.78125 C 489.964844 406.671875 491.027344 407.585938 492.070312 408.53125 C 493.109375 409.472656 494.125 410.441406 495.117188 411.433594 C 496.109375 412.425781 497.078125 413.441406 498.019531 414.480469 C 498.960938 415.519531 499.878906 416.582031 500.769531 417.667969 C 501.660156 418.753906 502.523438 419.859375 503.359375 420.984375 C 504.195312 422.113281 505 423.257812 505.78125 424.425781 C 506.5625 425.59375 507.3125 426.777344 508.03125 427.984375 C 508.753906 429.1875 509.445312 430.40625 510.109375 431.644531 C 510.769531 432.882812 511.398438 434.136719 512 435.402344 C 512.601562 436.671875 513.167969 437.957031 513.707031 439.25 C 514.242188 440.546875 514.746094 441.855469 515.21875 443.179688 C 515.691406 444.5 516.132812 445.832031 516.539062 447.175781 C 516.949219 448.519531 517.320312 449.871094 517.664062 451.230469 C 518.003906 452.59375 518.3125 453.960938 518.585938 455.339844 C 518.859375 456.714844 519.097656 458.097656 519.304688 459.484375 C 519.511719 460.875 519.683594 462.265625 519.820312 463.660156 C 519.957031 465.058594 520.0625 466.457031 520.128906 467.859375 C 520.199219 469.261719 520.234375 470.664062 520.234375 472.066406 C 520.230469 473.46875 520.195312 474.871094 520.125 476.273438 C 520.054688 477.675781 519.949219 479.074219 519.8125 480.46875 C 519.671875 481.863281 519.5 483.257812 519.292969 484.644531 C 519.085938 486.03125 518.84375 487.414062 518.570312 488.789062 C 518.292969 490.164062 517.988281 491.535156 517.644531 492.894531 C 517.300781 494.253906 516.925781 495.605469 516.519531 496.949219 C 516.109375 498.289062 515.671875 499.621094 515.195312 500.941406 C 514.722656 502.261719 514.21875 503.570312 513.679688 504.867188 C 513.144531 506.164062 512.574219 507.445312 511.972656 508.714844 C 511.371094 509.980469 510.742188 511.234375 510.078125 512.472656 C 509.417969 513.707031 508.726562 514.929688 508.003906 516.132812 C 507.28125 517.335938 506.53125 518.519531 505.753906 519.683594 C 504.972656 520.851562 504.164062 521.996094 503.328125 523.125 C 502.492188 524.25 501.628906 525.355469 500.738281 526.441406 C 499.847656 527.527344 498.933594 528.585938 497.992188 529.625 C 497.046875 530.667969 496.082031 531.683594 495.089844 532.675781 C 494.097656 533.667969 493.082031 534.632812 492.042969 535.574219 C 491.003906 536.519531 489.941406 537.433594 488.855469 538.324219 C 487.773438 539.214844 486.667969 540.078125 485.539062 540.914062 C 484.414062 541.75 483.265625 542.558594 482.101562 543.335938 C 480.933594 544.117188 479.75 544.867188 478.546875 545.589844 C 477.34375 546.3125 476.125 547.003906 474.886719 547.664062 C 473.648438 548.328125 472.398438 548.957031 471.128906 549.558594 C 469.859375 550.160156 468.578125 550.726562 467.28125 551.265625 C 465.988281 551.800781 464.679688 552.308594 463.359375 552.78125 C 462.039062 553.253906 460.707031 553.695312 459.363281 554.105469 C 458.023438 554.511719 456.671875 554.886719 455.308594 555.230469 C 453.949219 555.570312 452.582031 555.878906 451.203125 556.15625 C 449.828125 556.429688 448.449219 556.671875 447.058594 556.878906 C 445.671875 557.085938 444.28125 557.257812 442.882812 557.394531 C 441.488281 557.535156 440.089844 557.640625 438.6875 557.710938 C 437.289062 557.78125 435.886719 557.816406 434.480469 557.816406 Z M 434.480469 557.816406 " fill-opacity="1" fill-rule="nonzero"/></g><g clip-path="url(#dd5933d713)"><g clip-path="url(#0606401ab9)"><g clip-path="url(#9ceec4331e)"><g clip-path="url(#64a04f71af)"><path fill="#000000" d="M 493.078125 211.292969 L 493.082031 373.09375 C 493.09375 384.804688 495.265625 396.097656 499.597656 406.972656 L 500.300781 408.660156 C 504.625 419.546875 506.789062 430.847656 506.792969 442.5625 L 506.847656 674.652344 C 506.847656 675.996094 506.78125 677.335938 506.648438 678.675781 C 506.515625 680.011719 506.316406 681.339844 506.054688 682.65625 C 505.792969 683.972656 505.464844 685.273438 505.074219 686.558594 C 504.683594 687.84375 504.230469 689.109375 503.71875 690.347656 C 503.203125 691.589844 502.628906 692.800781 501.996094 693.988281 C 501.363281 695.171875 500.671875 696.324219 499.925781 697.4375 C 499.179688 698.554688 498.378906 699.632812 497.527344 700.671875 C 496.675781 701.710938 495.773438 702.703125 494.824219 703.652344 C 493.875 704.605469 492.878906 705.503906 491.839844 706.355469 C 490.804688 707.210938 489.726562 708.007812 488.609375 708.753906 C 487.492188 709.5 486.339844 710.191406 485.15625 710.824219 C 483.972656 711.457031 482.757812 712.03125 481.519531 712.546875 C 480.277344 713.0625 479.015625 713.515625 477.730469 713.90625 C 476.445312 714.296875 475.144531 714.621094 473.824219 714.882812 C 472.507812 715.148438 471.179688 715.34375 469.84375 715.476562 C 468.507812 715.609375 467.167969 715.675781 465.824219 715.675781 C 464.480469 715.675781 463.140625 715.609375 461.804688 715.476562 C 460.46875 715.34375 459.144531 715.148438 457.824219 714.886719 C 456.507812 714.625 455.207031 714.296875 453.921875 713.90625 C 452.640625 713.515625 451.375 713.066406 450.136719 712.550781 C 448.894531 712.035156 447.683594 711.460938 446.5 710.828125 C 445.316406 710.195312 444.164062 709.507812 443.046875 708.761719 C 441.933594 708.015625 440.855469 707.214844 439.816406 706.363281 C 438.78125 705.511719 437.785156 704.609375 436.835938 703.660156 C 435.886719 702.710938 434.988281 701.71875 434.132812 700.679688 C 433.28125 699.644531 432.484375 698.566406 431.738281 697.449219 C 430.992188 696.332031 430.300781 695.183594 429.667969 694 C 429.035156 692.816406 428.460938 691.601562 427.949219 690.363281 C 427.433594 689.121094 426.980469 687.859375 426.589844 686.574219 C 426.199219 685.289062 425.875 683.988281 425.613281 682.671875 C 425.351562 681.355469 425.152344 680.027344 425.019531 678.691406 C 424.886719 677.355469 424.820312 676.015625 424.820312 674.675781 L 424.8125 443.097656 C 424.785156 437.128906 425.339844 431.210938 426.46875 425.351562 C 427.601562 419.488281 429.289062 413.792969 431.535156 408.261719 C 433.785156 402.746094 435.484375 397.070312 436.636719 391.230469 C 437.785156 385.390625 438.367188 379.492188 438.375 373.539062 L 438.414062 211.3125 C 438.414062 211.121094 438.433594 210.933594 438.46875 210.742188 C 438.507812 210.554688 438.566406 210.375 438.644531 210.199219 C 438.722656 210.023438 438.816406 209.859375 438.929688 209.703125 C 439.042969 209.546875 439.171875 209.40625 439.3125 209.277344 C 439.457031 209.152344 439.613281 209.039062 439.777344 208.945312 C 439.945312 208.851562 440.121094 208.773438 440.304688 208.71875 C 440.488281 208.660156 440.675781 208.625 440.867188 208.609375 C 441.058594 208.589844 441.246094 208.59375 441.4375 208.621094 C 449.519531 209.503906 457.628906 209.941406 465.757812 209.933594 C 473.910156 209.980469 482.042969 209.566406 490.148438 208.691406 C 490.53125 208.652344 490.90625 208.695312 491.269531 208.8125 C 491.636719 208.933594 491.964844 209.121094 492.25 209.375 C 492.539062 209.632812 492.761719 209.933594 492.921875 210.285156 C 493.082031 210.632812 493.164062 211 493.171875 211.386719 Z M 493.078125 211.292969 " fill-opacity="1" fill-rule="nonzero"/></g></g></g></g><g clip-path="url(#d88c90b25e)"><g clip-path="url(#b45a9cac4d)"><g clip-path="url(#6cfe224a54)"><g clip-path="url(#209fde203b)"><path fill="#000000" d="M 643.863281 54.554688 L 605.601562 54.578125 C 605.0625 54.578125 604.527344 54.628906 604 54.734375 C 603.472656 54.835938 602.957031 54.992188 602.460938 55.199219 C 601.964844 55.402344 601.488281 55.65625 601.042969 55.953125 C 600.59375 56.253906 600.179688 56.59375 599.796875 56.976562 C 599.417969 57.355469 599.078125 57.769531 598.777344 58.21875 C 598.480469 58.667969 598.226562 59.140625 598.019531 59.636719 C 597.816406 60.136719 597.660156 60.648438 597.554688 61.175781 C 597.453125 61.707031 597.402344 62.238281 597.402344 62.777344 C 595.21875 64.742188 592.875 66.488281 590.371094 68.023438 C 587.867188 69.554688 585.246094 70.847656 582.503906 71.898438 C 579.761719 72.949219 576.949219 73.742188 574.0625 74.277344 C 571.175781 74.8125 568.261719 75.078125 565.328125 75.078125 L 564.015625 75.078125 C 558.722656 74.984375 553.71875 73.742188 548.996094 71.351562 C 544.5625 69.210938 539.886719 68.140625 534.960938 68.140625 L 488.105469 68.140625 C 483.179688 68.136719 478.257812 68.269531 473.339844 68.535156 C 468.421875 68.800781 463.515625 69.199219 458.617188 69.730469 C 453.722656 70.257812 448.84375 70.921875 443.984375 71.714844 C 439.125 72.511719 434.289062 73.433594 429.476562 74.492188 C 424.667969 75.546875 419.890625 76.730469 415.144531 78.042969 C 410.394531 79.359375 405.6875 80.800781 401.019531 82.367188 C 396.351562 83.9375 391.730469 85.628906 387.152344 87.449219 C 382.574219 89.265625 378.050781 91.207031 373.578125 93.269531 C 369.105469 95.332031 364.695312 97.515625 360.339844 99.816406 C 355.988281 102.117188 351.699219 104.535156 347.472656 107.066406 C 343.25 109.601562 339.097656 112.246094 335.019531 115.003906 C 330.9375 117.761719 326.9375 120.628906 323.011719 123.601562 C 319.085938 126.574219 315.242188 129.652344 311.484375 132.835938 C 307.726562 136.015625 304.054688 139.296875 300.472656 142.675781 C 296.890625 146.058594 293.402344 149.53125 290.011719 153.101562 C 286.617188 156.667969 283.320312 160.328125 280.125 164.074219 C 279.925781 164.320312 279.773438 164.59375 279.671875 164.894531 C 279.566406 165.195312 279.515625 165.503906 279.519531 165.820312 C 279.519531 166.136719 279.574219 166.445312 279.683594 166.742188 C 279.792969 167.039062 279.949219 167.3125 280.152344 167.554688 C 280.355469 167.800781 280.59375 168.003906 280.867188 168.164062 C 281.140625 168.328125 281.429688 168.4375 281.742188 168.5 C 282.054688 168.558594 282.367188 168.566406 282.679688 168.519531 C 282.992188 168.46875 283.289062 168.371094 283.570312 168.222656 C 288.707031 165.28125 294.011719 162.683594 299.484375 160.4375 C 304.960938 158.1875 310.558594 156.304688 316.28125 154.789062 C 322 153.273438 327.796875 152.132812 333.667969 151.375 C 339.535156 150.617188 345.429688 150.242188 351.351562 150.253906 L 396.476562 150.253906 C 397.433594 150.257812 398.386719 150.351562 399.324219 150.539062 C 400.265625 150.730469 401.179688 151.007812 402.066406 151.375 C 402.953125 151.742188 403.792969 152.195312 404.589844 152.726562 C 405.390625 153.261719 406.128906 153.867188 406.804688 154.546875 C 407.484375 155.222656 408.089844 155.960938 408.625 156.757812 C 409.15625 157.558594 409.609375 158.398438 409.976562 159.285156 C 410.34375 160.171875 410.621094 161.085938 410.808594 162.023438 C 411 162.964844 411.09375 163.917969 411.09375 164.875 L 411.097656 185.914062 C 411.097656 186.371094 411.171875 186.816406 411.316406 187.246094 C 411.464844 187.679688 411.679688 188.078125 411.960938 188.4375 C 412.238281 188.796875 412.570312 189.101562 412.953125 189.351562 C 413.335938 189.605469 413.746094 189.785156 414.1875 189.898438 C 422.617188 192.003906 431.144531 193.589844 439.765625 194.652344 C 448.390625 195.710938 457.046875 196.242188 465.734375 196.242188 C 474.421875 196.242188 483.078125 195.714844 491.699219 194.652344 C 500.324219 193.59375 508.847656 192.007812 517.277344 189.902344 C 517.71875 189.789062 518.132812 189.609375 518.515625 189.355469 C 518.894531 189.105469 519.226562 188.800781 519.507812 188.441406 C 519.789062 188.082031 520 187.683594 520.148438 187.253906 C 520.296875 186.820312 520.371094 186.375 520.371094 185.917969 L 520.371094 164.925781 C 520.367188 163.964844 520.460938 163.011719 520.644531 162.066406 C 520.832031 161.125 521.109375 160.207031 521.476562 159.316406 C 521.84375 158.429688 522.292969 157.585938 522.828125 156.785156 C 523.363281 155.984375 523.96875 155.242188 524.648438 154.5625 C 525.328125 153.882812 526.070312 153.277344 526.871094 152.742188 C 527.671875 152.207031 528.515625 151.757812 529.402344 151.390625 C 530.292969 151.023438 531.210938 150.746094 532.152344 150.558594 C 533.097656 150.375 534.050781 150.28125 535.011719 150.285156 C 540.300781 150.191406 545.296875 148.941406 550.007812 146.535156 C 554.449219 144.441406 559.128906 143.402344 564.042969 143.421875 L 565.328125 143.445312 C 568.261719 143.441406 571.171875 143.703125 574.058594 144.234375 C 576.941406 144.765625 579.753906 145.558594 582.496094 146.609375 C 585.234375 147.65625 587.855469 148.949219 590.359375 150.480469 C 592.859375 152.011719 595.199219 153.757812 597.382812 155.722656 C 597.378906 156.261719 597.433594 156.792969 597.535156 157.324219 C 597.640625 157.851562 597.796875 158.363281 598 158.863281 C 598.207031 159.359375 598.460938 159.832031 598.757812 160.28125 C 599.058594 160.730469 599.398438 161.144531 599.777344 161.523438 C 600.160156 161.90625 600.574219 162.246094 601.023438 162.546875 C 601.46875 162.84375 601.945312 163.097656 602.441406 163.300781 C 602.9375 163.507812 603.453125 163.664062 603.980469 163.765625 C 604.511719 163.871094 605.042969 163.921875 605.582031 163.921875 L 643.867188 163.921875 C 644.40625 163.925781 644.9375 163.875 645.464844 163.769531 C 645.996094 163.664062 646.507812 163.507812 647.007812 163.304688 C 647.503906 163.097656 647.976562 162.847656 648.425781 162.546875 C 648.875 162.246094 649.289062 161.90625 649.667969 161.527344 C 650.050781 161.144531 650.390625 160.730469 650.6875 160.285156 C 650.988281 159.835938 651.238281 159.363281 651.445312 158.863281 C 651.652344 158.367188 651.804688 157.851562 651.910156 157.324219 C 652.015625 156.796875 652.066406 156.261719 652.066406 155.722656 L 652.0625 62.757812 C 652.058594 62.21875 652.003906 61.6875 651.894531 61.160156 C 651.789062 60.632812 651.632812 60.121094 651.425781 59.625 C 651.21875 59.128906 650.964844 58.660156 650.664062 58.210938 C 650.367188 57.765625 650.027344 57.351562 649.644531 56.972656 C 649.265625 56.59375 648.851562 56.253906 648.40625 55.953125 C 647.960938 55.652344 647.488281 55.402344 646.992188 55.195312 C 646.496094 54.984375 645.984375 54.828125 645.457031 54.722656 C 644.929688 54.613281 644.398438 54.558594 643.863281 54.554688 Z M 643.863281 54.554688 " fill-opacity="1" fill-rule="nonzero"/></g></g></g></g><g fill="#000000" fill-opacity="1"><g transform="translate(363.057497, 453.202468)"><g/></g></g><g fill="#000000" fill-opacity="1"><g transform="translate(409.781418, 453.202468)"><g/></g></g><g fill="#000000" fill-opacity="1"><g transform="translate(456.50534, 453.202468)"><g/></g></g><g fill="#000000" fill-opacity="1"><g transform="translate(503.237177, 453.202468)"><g><path d="M 141.078125 -29.34375 L 141.078125 0 L 18.734375 0 L 18.734375 -158 L 138.140625 -158 L 138.140625 -128.65625 L 55.078125 -128.65625 L 55.078125 -94.34375 L 128.4375 -94.34375 L 128.4375 -65.90625 L 55.078125 -65.90625 L 55.078125 -29.34375 Z M 141.078125 -29.34375 "/></g></g></g><g fill="#000000" fill-opacity="1"><g transform="translate(637.540308, 453.202468)"><g><path d="M 122.796875 -33.859375 L 49.4375 -33.859375 L 35.4375 0 L -2.03125 0 L 68.390625 -158 L 104.5 -158 L 175.15625 0 L 136.78125 0 Z M 111.28125 -61.625 L 86.21875 -122.109375 L 61.171875 -61.625 Z M 111.28125 -61.625 "/></g></g></g><g fill="#000000" fill-opacity="1"><g transform="translate(793.286778, 453.202468)"><g><path d="M 70.65625 2.703125 C 58.164062 2.703125 46.085938 1.007812 34.421875 -2.375 C 22.753906 -5.757812 13.382812 -10.160156 6.3125 -15.578125 L 18.734375 -43.109375 C 25.503906 -38.140625 33.550781 -34.148438 42.875 -31.140625 C 52.207031 -28.140625 61.539062 -26.640625 70.875 -26.640625 C 81.257812 -26.640625 88.929688 -28.179688 93.890625 -31.265625 C 98.859375 -34.347656 101.34375 -38.445312 101.34375 -43.5625 C 101.34375 -47.320312 99.875 -50.441406 96.9375 -52.921875 C 94.007812 -55.410156 90.25 -57.40625 85.65625 -58.90625 C 81.070312 -60.414062 74.863281 -62.070312 67.03125 -63.875 C 55 -66.738281 45.144531 -69.597656 37.46875 -72.453125 C 29.789062 -75.316406 23.207031 -79.90625 17.71875 -86.21875 C 12.226562 -92.539062 9.484375 -100.96875 9.484375 -111.5 C 9.484375 -120.6875 11.960938 -129.003906 16.921875 -136.453125 C 21.890625 -143.898438 29.375 -149.804688 39.375 -154.171875 C 49.382812 -158.535156 61.613281 -160.71875 76.0625 -160.71875 C 86.144531 -160.71875 96 -159.507812 105.625 -157.09375 C 115.257812 -154.6875 123.691406 -151.226562 130.921875 -146.71875 L 119.625 -118.953125 C 105.03125 -127.234375 90.4375 -131.375 75.84375 -131.375 C 65.613281 -131.375 58.050781 -129.71875 53.15625 -126.40625 C 48.269531 -123.09375 45.828125 -118.726562 45.828125 -113.3125 C 45.828125 -107.894531 48.644531 -103.867188 54.28125 -101.234375 C 59.925781 -98.597656 68.539062 -96.003906 80.125 -93.453125 C 92.164062 -90.585938 102.023438 -87.722656 109.703125 -84.859375 C 117.378906 -82.003906 123.960938 -77.492188 129.453125 -71.328125 C 134.941406 -65.160156 137.6875 -56.804688 137.6875 -46.265625 C 137.6875 -37.242188 135.164062 -29.007812 130.125 -21.5625 C 125.082031 -14.113281 117.519531 -8.207031 107.4375 -3.84375 C 97.351562 0.519531 85.09375 2.703125 70.65625 2.703125 Z M 70.65625 2.703125 "/></g></g></g><g fill="#000000" fill-opacity="1"><g transform="translate(920.141119, 453.202468)"><g><path d="M 94.578125 -55.984375 L 94.578125 0 L 58.015625 0 L 58.015625 -56.421875 L -3.15625 -158 L 35.65625 -158 L 77.875 -87.796875 L 120.078125 -158 L 155.96875 -158 Z M 94.578125 -55.984375 "/></g></g></g><path stroke-linecap="butt" transform="matrix(2.607227, 0, 0, 2.607227, 515.456644, 470.169788)" fill="none" stroke-linejoin="miter" d="M 34.515088 47.000568 L 25.706939 34.273025 L 15.990857 34.273025 L 15.990857 47.000568 L 5.414785 47.000568 L 5.414785 1.335732 L 25.181057 1.335732 C 29.227801 1.335732 32.736678 2.009939 35.710683 3.358355 C 38.693678 4.70677 40.987482 6.623018 42.590598 9.108597 C 44.204202 11.58219 45.011753 14.512747 45.011753 17.900266 C 45.011753 21.298273 44.193714 24.228829 42.559135 26.691934 C 40.933545 29.144552 38.618766 31.018849 35.614796 32.314826 L 45.855262 47.000568 Z M 34.308331 17.900266 C 34.308331 15.341273 33.479805 13.377081 31.82425 12.006192 C 30.177685 10.626314 27.767018 9.935625 24.592249 9.935625 L 15.990857 9.935625 L 15.990857 25.863408 L 24.592249 25.863408 C 27.767018 25.863408 30.177685 25.168225 31.82425 23.777859 C 33.479805 22.385994 34.308331 20.427796 34.308331 17.900266 Z M 83.763714 38.526527 L 83.763714 47.000568 L 48.403767 47.000568 L 48.403767 1.335732 L 82.920205 1.335732 L 82.920205 9.808275 L 58.900432 9.808275 L 58.900432 19.731114 L 80.116999 19.731114 L 80.116999 27.950455 L 58.900432 27.950455 L 58.900432 38.526527 Z M 83.763714 38.526527 " stroke="#000000" stroke-width="2.446571" stroke-opacity="1" stroke-miterlimit="4"/><path stroke-linecap="butt" transform="matrix(2.607227, 0, 0, 2.607227, 729.243186, 470.169788)" fill="none" stroke-linejoin="miter" d="M 54.806711 51.889323 C 53.320457 53.715677 51.521072 55.107542 49.408554 56.063418 C 47.305026 57.017797 44.990246 57.495735 42.462717 57.495735 C 39.076696 57.495735 36.012796 56.769089 33.272517 55.314299 C 30.533735 53.859508 27.400917 51.284035 23.875559 47.589377 C 19.744913 47.069487 16.060743 45.742047 12.821549 43.607056 C 9.583854 41.473564 7.060819 38.722796 5.255441 35.356252 C 3.451561 31.980719 2.548122 28.247107 2.548122 24.15991 C 2.548122 19.689164 3.620862 15.6589 5.76634 12.070616 C 7.920809 8.480835 10.899308 5.667142 14.70184 3.628038 C 18.513361 1.579945 22.792332 0.555149 27.538755 0.555149 C 32.274689 0.555149 36.532685 1.579945 40.312743 3.628038 C 44.103289 5.667142 47.081789 8.480835 49.248243 12.070616 C 51.425184 15.6589 52.514404 19.689164 52.514404 24.15991 C 52.514404 29.468172 51.022158 34.1247 48.037665 38.127995 C 45.065158 42.131291 41.120294 44.913521 36.203073 46.474686 C 37.296787 47.610352 38.354544 48.428391 39.373347 48.927304 C 40.39215 49.426218 41.491858 49.676424 42.670972 49.676424 C 45.495153 49.676424 47.974739 48.545253 50.108232 46.282912 Z M 13.236562 24.15991 C 13.236562 26.994579 13.856833 29.522108 15.098873 31.741001 C 16.342412 33.949406 18.051903 35.675377 20.228845 36.917418 C 22.404288 38.159458 24.841924 38.781227 27.538755 38.781227 C 30.225098 38.781227 32.65674 38.159458 34.833682 36.917418 C 37.010624 35.675377 38.720115 33.949406 39.962155 31.741001 C 41.205694 29.522108 41.825965 26.994579 41.825965 24.15991 C 41.825965 21.335729 41.205694 18.812694 39.962155 16.593801 C 38.720115 14.374909 37.010624 12.648937 34.833682 11.417384 C 32.65674 10.175344 30.225098 9.553574 27.538755 9.553574 C 24.841924 9.553574 22.404288 10.175344 20.228845 11.417384 C 18.051903 12.648937 16.342412 14.374909 15.098873 16.593801 C 13.856833 18.812694 13.236562 21.335729 13.236562 24.15991 Z M 75.807531 47.781151 C 69.276706 47.781151 64.196177 45.975773 60.564444 42.365016 C 56.932712 38.754259 55.116846 33.598818 55.116846 26.898691 L 55.116846 1.335732 L 65.692918 1.335732 L 65.692918 26.51664 C 65.692918 34.692532 69.084931 38.781227 75.870457 38.781227 C 79.172577 38.781227 81.694114 37.793888 83.436566 35.819208 C 85.17752 33.832543 86.047997 30.732686 86.047997 26.51664 L 86.047997 1.335732 L 96.481736 1.335732 L 96.481736 26.898691 C 96.481736 33.598818 94.66587 38.754259 91.034138 42.365016 C 87.402406 45.975773 82.326371 47.781151 75.807531 47.781151 Z M 137.320744 38.526527 L 137.320744 47.000568 L 101.960797 47.000568 L 101.960797 1.335732 L 136.477235 1.335732 L 136.477235 9.808275 L 112.457462 9.808275 L 112.457462 19.731114 L 133.67403 19.731114 L 133.67403 27.950455 L 112.457462 27.950455 L 112.457462 38.526527 Z M 155.779053 47.781151 C 152.168296 47.781151 148.6759 47.292725 145.298869 46.314375 C 141.932325 45.337523 139.229501 44.064019 137.191896 42.492366 L 140.775684 34.544207 C 142.729388 35.978022 145.054656 37.130168 147.751486 38.000645 C 150.448317 38.871122 153.145148 39.307109 155.843477 39.307109 C 158.847447 39.307109 161.066339 38.860634 162.500154 37.969182 C 163.93397 37.077729 164.650128 35.888127 164.650128 34.401874 C 164.650128 33.318647 164.226126 32.421201 163.376624 31.709538 C 162.527123 30.987386 161.439401 30.409066 160.111961 29.973078 C 158.795009 29.538589 157.006111 29.060651 154.743769 28.539263 C 151.260363 27.712235 148.409213 26.883709 146.190321 26.055182 C 143.971429 25.226656 142.065668 23.899216 140.47304 22.072862 C 138.890899 20.246509 138.099829 17.814866 138.099829 14.777935 C 138.099829 12.123055 138.815987 9.718381 140.249802 7.562414 C 141.683617 5.407946 143.844078 3.70295 146.732684 2.450422 C 149.630279 1.185908 153.167622 0.555149 157.340218 0.555149 C 160.260287 0.555149 163.111436 0.905737 165.893667 1.605415 C 168.675897 2.296103 171.112034 3.29393 173.203576 4.600395 L 169.938913 12.611481 C 165.722867 10.223287 161.502327 9.027692 157.275794 9.027692 C 154.324262 9.027692 152.136833 9.505631 150.713506 10.461507 C 149.302164 11.417384 148.594995 12.6804 148.594995 14.252053 C 148.594995 15.813218 149.413034 16.975852 151.049111 17.741452 C 152.68369 18.505554 155.173764 19.253176 158.519333 19.985815 C 162.001241 20.814341 164.85239 21.642868 167.071283 22.471394 C 169.291673 23.29992 171.191441 24.604887 172.773582 26.38929 C 174.36621 28.173693 175.163273 30.58436 175.163273 33.621291 C 175.163273 36.232722 174.430634 38.616421 172.965356 40.772388 C 171.510566 42.928354 169.323136 44.637845 166.403068 45.900861 C 163.493487 47.153389 159.951649 47.781151 155.779053 47.781151 Z M 186.897484 9.935625 L 172.276166 9.935625 L 172.276166 1.335732 L 212.078393 1.335732 L 212.078393 9.935625 L 197.457075 9.935625 L 197.457075 47.000568 L 186.897484 47.000568 Z M 186.897484 9.935625 " stroke="#000000" stroke-width="2.446571" stroke-opacity="1" stroke-miterlimit="4"/><path stroke-linecap="butt" transform="matrix(0.75, 0, 0, 0.75, 530.251204, 648.652019)" fill="none" stroke-linejoin="miter" d="M -0.00160473 6.500433 L 72.540066 6.500433 " stroke="#000000" stroke-width="13" stroke-opacity="1" stroke-miterlimit="4"/><path stroke-linecap="butt" transform="matrix(0.75, 0, 0, 0.75, 1181.288275, 653.527019)" fill="none" stroke-linejoin="miter" d="M 0.00105028 6.500433 L 72.542721 6.500433 " stroke="#000000" stroke-width="13" stroke-opacity="1" stroke-miterlimit="4"/><g fill="#000000" fill-opacity="1"><g transform="translate(590.790263, 669.476986)"><g><path d="M 11.03125 0.421875 C 9.082031 0.421875 7.195312 0.160156 5.375 -0.359375 C 3.550781 -0.890625 2.085938 -1.582031 0.984375 -2.4375 L 2.921875 -6.734375 C 3.984375 -5.953125 5.242188 -5.328125 6.703125 -4.859375 C 8.160156 -4.390625 9.613281 -4.15625 11.0625 -4.15625 C 12.6875 -4.15625 13.882812 -4.394531 14.65625 -4.875 C 15.4375 -5.363281 15.828125 -6.003906 15.828125 -6.796875 C 15.828125 -7.390625 15.597656 -7.878906 15.140625 -8.265625 C 14.679688 -8.648438 14.09375 -8.957031 13.375 -9.1875 C 12.65625 -9.425781 11.6875 -9.6875 10.46875 -9.96875 C 8.59375 -10.414062 7.050781 -10.863281 5.84375 -11.3125 C 4.644531 -11.757812 3.617188 -12.476562 2.765625 -13.46875 C 1.910156 -14.457031 1.484375 -15.769531 1.484375 -17.40625 C 1.484375 -18.84375 1.867188 -20.140625 2.640625 -21.296875 C 3.421875 -22.460938 4.59375 -23.382812 6.15625 -24.0625 C 7.71875 -24.75 9.625 -25.09375 11.875 -25.09375 C 13.445312 -25.09375 14.984375 -24.90625 16.484375 -24.53125 C 17.992188 -24.15625 19.3125 -23.613281 20.4375 -22.90625 L 18.6875 -18.578125 C 16.40625 -19.867188 14.125 -20.515625 11.84375 -20.515625 C 10.25 -20.515625 9.066406 -20.253906 8.296875 -19.734375 C 7.535156 -19.222656 7.15625 -18.546875 7.15625 -17.703125 C 7.15625 -16.847656 7.59375 -16.210938 8.46875 -15.796875 C 9.351562 -15.390625 10.703125 -14.988281 12.515625 -14.59375 C 14.390625 -14.144531 15.925781 -13.695312 17.125 -13.25 C 18.320312 -12.800781 19.347656 -12.09375 20.203125 -11.125 C 21.066406 -10.164062 21.5 -8.863281 21.5 -7.21875 C 21.5 -5.8125 21.101562 -4.523438 20.3125 -3.359375 C 19.53125 -2.203125 18.351562 -1.28125 16.78125 -0.59375 C 15.207031 0.0820312 13.289062 0.421875 11.03125 0.421875 Z M 11.03125 0.421875 "/></g></g></g><g fill="#000000" fill-opacity="1"><g transform="translate(613.279733, 669.476986)"><g><path d="M 22.03125 -4.578125 L 22.03125 0 L 2.921875 0 L 2.921875 -24.671875 L 21.578125 -24.671875 L 21.578125 -20.09375 L 8.59375 -20.09375 L 8.59375 -14.734375 L 20.0625 -14.734375 L 20.0625 -10.296875 L 8.59375 -10.296875 L 8.59375 -4.578125 Z M 22.03125 -4.578125 "/></g></g></g><g fill="#000000" fill-opacity="1"><g transform="translate(636.93245, 669.476986)"><g><path d="M 13.890625 0.421875 C 10.359375 0.421875 7.613281 -0.550781 5.65625 -2.5 C 3.695312 -4.445312 2.71875 -7.234375 2.71875 -10.859375 L 2.71875 -24.671875 L 8.421875 -24.671875 L 8.421875 -11.0625 C 8.421875 -6.644531 10.253906 -4.4375 13.921875 -4.4375 C 15.710938 -4.4375 17.078125 -4.972656 18.015625 -6.046875 C 18.953125 -7.117188 19.421875 -8.789062 19.421875 -11.0625 L 19.421875 -24.671875 L 25.0625 -24.671875 L 25.0625 -10.859375 C 25.0625 -7.234375 24.078125 -4.445312 22.109375 -2.5 C 20.148438 -0.550781 17.410156 0.421875 13.890625 0.421875 Z M 13.890625 0.421875 "/></g></g></g><g fill="#000000" fill-opacity="1"><g transform="translate(664.709411, 669.476986)"><g/></g></g><g fill="#000000" fill-opacity="1"><g transform="translate(674.685145, 669.476986)"><g><path d="M 14.734375 0.421875 C 12.222656 0.421875 9.945312 -0.125 7.90625 -1.21875 C 5.875 -2.3125 4.273438 -3.828125 3.109375 -5.765625 C 1.953125 -7.703125 1.375 -9.894531 1.375 -12.34375 C 1.375 -14.78125 1.953125 -16.96875 3.109375 -18.90625 C 4.273438 -20.84375 5.875 -22.359375 7.90625 -23.453125 C 9.945312 -24.546875 12.234375 -25.09375 14.765625 -25.09375 C 16.910156 -25.09375 18.84375 -24.71875 20.5625 -23.96875 C 22.289062 -23.21875 23.742188 -22.140625 24.921875 -20.734375 L 21.25 -17.34375 C 19.582031 -19.269531 17.515625 -20.234375 15.046875 -20.234375 C 13.523438 -20.234375 12.164062 -19.894531 10.96875 -19.21875 C 9.769531 -18.550781 8.832031 -17.617188 8.15625 -16.421875 C 7.488281 -15.222656 7.15625 -13.863281 7.15625 -12.34375 C 7.15625 -10.8125 7.488281 -9.445312 8.15625 -8.25 C 8.832031 -7.050781 9.769531 -6.113281 10.96875 -5.4375 C 12.164062 -4.769531 13.523438 -4.4375 15.046875 -4.4375 C 17.515625 -4.4375 19.582031 -5.414062 21.25 -7.375 L 24.921875 -3.984375 C 23.742188 -2.546875 22.285156 -1.453125 20.546875 -0.703125 C 18.804688 0.046875 16.867188 0.421875 14.734375 0.421875 Z M 14.734375 0.421875 "/></g></g></g><g fill="#000000" fill-opacity="1"><g transform="translate(700.523351, 669.476986)"><g><path d="M 25.5625 -24.671875 L 25.5625 0 L 19.84375 0 L 19.84375 -10.109375 L 8.640625 -10.109375 L 8.640625 0 L 2.921875 0 L 2.921875 -24.671875 L 8.640625 -24.671875 L 8.640625 -14.953125 L 19.84375 -14.953125 L 19.84375 -24.671875 Z M 25.5625 -24.671875 "/></g></g></g><g fill="#000000" fill-opacity="1"><g transform="translate(729.005314, 669.476986)"><g><path d="M 19.171875 -5.28125 L 7.71875 -5.28125 L 5.53125 0 L -0.3125 0 L 10.6875 -24.671875 L 16.328125 -24.671875 L 27.359375 0 L 21.359375 0 Z M 17.375 -9.625 L 13.46875 -19.0625 L 9.546875 -9.625 Z M 17.375 -9.625 "/></g></g></g><g fill="#000000" fill-opacity="1"><g transform="translate(756.006777, 669.476986)"><g><path d="M 25.375 0 L 25.34375 -14.8125 L 18.078125 -2.609375 L 15.515625 -2.609375 L 8.28125 -14.484375 L 8.28125 0 L 2.921875 0 L 2.921875 -24.671875 L 7.65625 -24.671875 L 16.890625 -9.34375 L 25.984375 -24.671875 L 30.671875 -24.671875 L 30.734375 0 Z M 25.375 0 "/></g></g></g><g fill="#000000" fill-opacity="1"><g transform="translate(789.670487, 669.476986)"><g><path d="M 19.171875 -5.28125 L 7.71875 -5.28125 L 5.53125 0 L -0.3125 0 L 10.6875 -24.671875 L 16.328125 -24.671875 L 27.359375 0 L 21.359375 0 Z M 17.375 -9.625 L 13.46875 -19.0625 L 9.546875 -9.625 Z M 17.375 -9.625 "/></g></g></g><g fill="#000000" fill-opacity="1"><g transform="translate(816.671951, 669.476986)"><g><path d="M 2.921875 -24.671875 L 14.140625 -24.671875 C 16.816406 -24.671875 19.179688 -24.160156 21.234375 -23.140625 C 23.296875 -22.117188 24.894531 -20.675781 26.03125 -18.8125 C 27.164062 -16.957031 27.734375 -14.800781 27.734375 -12.34375 C 27.734375 -9.875 27.164062 -7.707031 26.03125 -5.84375 C 24.894531 -3.988281 23.296875 -2.550781 21.234375 -1.53125 C 19.179688 -0.507812 16.816406 0 14.140625 0 L 2.921875 0 Z M 13.859375 -4.6875 C 16.316406 -4.6875 18.28125 -5.375 19.75 -6.75 C 21.21875 -8.125 21.953125 -9.988281 21.953125 -12.34375 C 21.953125 -14.6875 21.21875 -16.546875 19.75 -17.921875 C 18.28125 -19.296875 16.316406 -19.984375 13.859375 -19.984375 L 8.640625 -19.984375 L 8.640625 -4.6875 Z M 13.859375 -4.6875 "/></g></g></g><g fill="#000000" fill-opacity="1"><g transform="translate(845.788419, 669.476986)"><g><path d="M 14.875 0.421875 C 12.3125 0.421875 10 -0.128906 7.9375 -1.234375 C 5.882812 -2.335938 4.273438 -3.859375 3.109375 -5.796875 C 1.953125 -7.734375 1.375 -9.914062 1.375 -12.34375 C 1.375 -14.757812 1.953125 -16.9375 3.109375 -18.875 C 4.273438 -20.8125 5.882812 -22.332031 7.9375 -23.4375 C 10 -24.539062 12.3125 -25.09375 14.875 -25.09375 C 17.4375 -25.09375 19.738281 -24.539062 21.78125 -23.4375 C 23.820312 -22.332031 25.429688 -20.8125 26.609375 -18.875 C 27.785156 -16.9375 28.375 -14.757812 28.375 -12.34375 C 28.375 -9.914062 27.785156 -7.734375 26.609375 -5.796875 C 25.429688 -3.859375 23.820312 -2.335938 21.78125 -1.234375 C 19.738281 -0.128906 17.4375 0.421875 14.875 0.421875 Z M 14.875 -4.4375 C 16.332031 -4.4375 17.648438 -4.769531 18.828125 -5.4375 C 20.003906 -6.113281 20.925781 -7.050781 21.59375 -8.25 C 22.257812 -9.445312 22.59375 -10.8125 22.59375 -12.34375 C 22.59375 -13.863281 22.257812 -15.222656 21.59375 -16.421875 C 20.925781 -17.617188 20.003906 -18.550781 18.828125 -19.21875 C 17.648438 -19.894531 16.332031 -20.234375 14.875 -20.234375 C 13.414062 -20.234375 12.097656 -19.894531 10.921875 -19.21875 C 9.753906 -18.550781 8.832031 -17.617188 8.15625 -16.421875 C 7.488281 -15.222656 7.15625 -13.863281 7.15625 -12.34375 C 7.15625 -10.8125 7.488281 -9.445312 8.15625 -8.25 C 8.832031 -7.050781 9.753906 -6.113281 10.921875 -5.4375 C 12.097656 -4.769531 13.414062 -4.4375 14.875 -4.4375 Z M 14.875 -4.4375 "/></g></g></g><g fill="#000000" fill-opacity="1"><g transform="translate(875.539371, 669.476986)"><g><path d="M 4.65625 -6.5625 C 5.644531 -6.5625 6.453125 -6.25 7.078125 -5.625 C 7.710938 -5 8.03125 -4.179688 8.03125 -3.171875 C 8.03125 -2.703125 7.972656 -2.234375 7.859375 -1.765625 C 7.742188 -1.296875 7.484375 -0.585938 7.078125 0.359375 L 5.078125 5.421875 L 1.59375 5.421875 L 3.140625 -0.171875 C 2.546875 -0.410156 2.078125 -0.789062 1.734375 -1.3125 C 1.398438 -1.84375 1.234375 -2.460938 1.234375 -3.171875 C 1.234375 -4.179688 1.554688 -5 2.203125 -5.625 C 2.847656 -6.25 3.664062 -6.5625 4.65625 -6.5625 Z M 4.65625 -6.5625 "/></g></g></g><g fill="#000000" fill-opacity="1"><g transform="translate(884.774867, 669.476986)"><g/></g></g><g fill="#000000" fill-opacity="1"><g transform="translate(894.75059, 669.476986)"><g><path d="M 25.5625 -24.671875 L 25.5625 0 L 20.875 0 L 8.5625 -14.984375 L 8.5625 0 L 2.921875 0 L 2.921875 -24.671875 L 7.65625 -24.671875 L 19.921875 -9.6875 L 19.921875 -24.671875 Z M 25.5625 -24.671875 "/></g></g></g><g fill="#000000" fill-opacity="1"><g transform="translate(923.232553, 669.476986)"><g><path d="M 14.875 0.421875 C 12.3125 0.421875 10 -0.128906 7.9375 -1.234375 C 5.882812 -2.335938 4.273438 -3.859375 3.109375 -5.796875 C 1.953125 -7.734375 1.375 -9.914062 1.375 -12.34375 C 1.375 -14.757812 1.953125 -16.9375 3.109375 -18.875 C 4.273438 -20.8125 5.882812 -22.332031 7.9375 -23.4375 C 10 -24.539062 12.3125 -25.09375 14.875 -25.09375 C 17.4375 -25.09375 19.738281 -24.539062 21.78125 -23.4375 C 23.820312 -22.332031 25.429688 -20.8125 26.609375 -18.875 C 27.785156 -16.9375 28.375 -14.757812 28.375 -12.34375 C 28.375 -9.914062 27.785156 -7.734375 26.609375 -5.796875 C 25.429688 -3.859375 23.820312 -2.335938 21.78125 -1.234375 C 19.738281 -0.128906 17.4375 0.421875 14.875 0.421875 Z M 14.875 -4.4375 C 16.332031 -4.4375 17.648438 -4.769531 18.828125 -5.4375 C 20.003906 -6.113281 20.925781 -7.050781 21.59375 -8.25 C 22.257812 -9.445312 22.59375 -10.8125 22.59375 -12.34375 C 22.59375 -13.863281 22.257812 -15.222656 21.59375 -16.421875 C 20.925781 -17.617188 20.003906 -18.550781 18.828125 -19.21875 C 17.648438 -19.894531 16.332031 -20.234375 14.875 -20.234375 C 13.414062 -20.234375 12.097656 -19.894531 10.921875 -19.21875 C 9.753906 -18.550781 8.832031 -17.617188 8.15625 -16.421875 C 7.488281 -15.222656 7.15625 -13.863281 7.15625 -12.34375 C 7.15625 -10.8125 7.488281 -9.445312 8.15625 -8.25 C 8.832031 -7.050781 9.753906 -6.113281 10.921875 -5.4375 C 12.097656 -4.769531 13.414062 -4.4375 14.875 -4.4375 Z M 14.875 -4.4375 "/></g></g></g><g fill="#000000" fill-opacity="1"><g transform="translate(952.983505, 669.476986)"><g><path d="M 11.03125 0.421875 C 9.082031 0.421875 7.195312 0.160156 5.375 -0.359375 C 3.550781 -0.890625 2.085938 -1.582031 0.984375 -2.4375 L 2.921875 -6.734375 C 3.984375 -5.953125 5.242188 -5.328125 6.703125 -4.859375 C 8.160156 -4.390625 9.613281 -4.15625 11.0625 -4.15625 C 12.6875 -4.15625 13.882812 -4.394531 14.65625 -4.875 C 15.4375 -5.363281 15.828125 -6.003906 15.828125 -6.796875 C 15.828125 -7.390625 15.597656 -7.878906 15.140625 -8.265625 C 14.679688 -8.648438 14.09375 -8.957031 13.375 -9.1875 C 12.65625 -9.425781 11.6875 -9.6875 10.46875 -9.96875 C 8.59375 -10.414062 7.050781 -10.863281 5.84375 -11.3125 C 4.644531 -11.757812 3.617188 -12.476562 2.765625 -13.46875 C 1.910156 -14.457031 1.484375 -15.769531 1.484375 -17.40625 C 1.484375 -18.84375 1.867188 -20.140625 2.640625 -21.296875 C 3.421875 -22.460938 4.59375 -23.382812 6.15625 -24.0625 C 7.71875 -24.75 9.625 -25.09375 11.875 -25.09375 C 13.445312 -25.09375 14.984375 -24.90625 16.484375 -24.53125 C 17.992188 -24.15625 19.3125 -23.613281 20.4375 -22.90625 L 18.6875 -18.578125 C 16.40625 -19.867188 14.125 -20.515625 11.84375 -20.515625 C 10.25 -20.515625 9.066406 -20.253906 8.296875 -19.734375 C 7.535156 -19.222656 7.15625 -18.546875 7.15625 -17.703125 C 7.15625 -16.847656 7.59375 -16.210938 8.46875 -15.796875 C 9.351562 -15.390625 10.703125 -14.988281 12.515625 -14.59375 C 14.390625 -14.144531 15.925781 -13.695312 17.125 -13.25 C 18.320312 -12.800781 19.347656 -12.09375 20.203125 -11.125 C 21.066406 -10.164062 21.5 -8.863281 21.5 -7.21875 C 21.5 -5.8125 21.101562 -4.523438 20.3125 -3.359375 C 19.53125 -2.203125 18.351562 -1.28125 16.78125 -0.59375 C 15.207031 0.0820312 13.289062 0.421875 11.03125 0.421875 Z M 11.03125 0.421875 "/></g></g></g><g fill="#000000" fill-opacity="1"><g transform="translate(975.472952, 669.476986)"><g><path d="M 11.03125 0.421875 C 9.082031 0.421875 7.195312 0.160156 5.375 -0.359375 C 3.550781 -0.890625 2.085938 -1.582031 0.984375 -2.4375 L 2.921875 -6.734375 C 3.984375 -5.953125 5.242188 -5.328125 6.703125 -4.859375 C 8.160156 -4.390625 9.613281 -4.15625 11.0625 -4.15625 C 12.6875 -4.15625 13.882812 -4.394531 14.65625 -4.875 C 15.4375 -5.363281 15.828125 -6.003906 15.828125 -6.796875 C 15.828125 -7.390625 15.597656 -7.878906 15.140625 -8.265625 C 14.679688 -8.648438 14.09375 -8.957031 13.375 -9.1875 C 12.65625 -9.425781 11.6875 -9.6875 10.46875 -9.96875 C 8.59375 -10.414062 7.050781 -10.863281 5.84375 -11.3125 C 4.644531 -11.757812 3.617188 -12.476562 2.765625 -13.46875 C 1.910156 -14.457031 1.484375 -15.769531 1.484375 -17.40625 C 1.484375 -18.84375 1.867188 -20.140625 2.640625 -21.296875 C 3.421875 -22.460938 4.59375 -23.382812 6.15625 -24.0625 C 7.71875 -24.75 9.625 -25.09375 11.875 -25.09375 C 13.445312 -25.09375 14.984375 -24.90625 16.484375 -24.53125 C 17.992188 -24.15625 19.3125 -23.613281 20.4375 -22.90625 L 18.6875 -18.578125 C 16.40625 -19.867188 14.125 -20.515625 11.84375 -20.515625 C 10.25 -20.515625 9.066406 -20.253906 8.296875 -19.734375 C 7.535156 -19.222656 7.15625 -18.546875 7.15625 -17.703125 C 7.15625 -16.847656 7.59375 -16.210938 8.46875 -15.796875 C 9.351562 -15.390625 10.703125 -14.988281 12.515625 -14.59375 C 14.390625 -14.144531 15.925781 -13.695312 17.125 -13.25 C 18.320312 -12.800781 19.347656 -12.09375 20.203125 -11.125 C 21.066406 -10.164062 21.5 -8.863281 21.5 -7.21875 C 21.5 -5.8125 21.101562 -4.523438 20.3125 -3.359375 C 19.53125 -2.203125 18.351562 -1.28125 16.78125 -0.59375 C 15.207031 0.0820312 13.289062 0.421875 11.03125 0.421875 Z M 11.03125 0.421875 "/></g></g></g><g fill="#000000" fill-opacity="1"><g transform="translate(997.962422, 669.476986)"><g><path d="M 14.875 0.421875 C 12.3125 0.421875 10 -0.128906 7.9375 -1.234375 C 5.882812 -2.335938 4.273438 -3.859375 3.109375 -5.796875 C 1.953125 -7.734375 1.375 -9.914062 1.375 -12.34375 C 1.375 -14.757812 1.953125 -16.9375 3.109375 -18.875 C 4.273438 -20.8125 5.882812 -22.332031 7.9375 -23.4375 C 10 -24.539062 12.3125 -25.09375 14.875 -25.09375 C 17.4375 -25.09375 19.738281 -24.539062 21.78125 -23.4375 C 23.820312 -22.332031 25.429688 -20.8125 26.609375 -18.875 C 27.785156 -16.9375 28.375 -14.757812 28.375 -12.34375 C 28.375 -9.914062 27.785156 -7.734375 26.609375 -5.796875 C 25.429688 -3.859375 23.820312 -2.335938 21.78125 -1.234375 C 19.738281 -0.128906 17.4375 0.421875 14.875 0.421875 Z M 14.875 -4.4375 C 16.332031 -4.4375 17.648438 -4.769531 18.828125 -5.4375 C 20.003906 -6.113281 20.925781 -7.050781 21.59375 -8.25 C 22.257812 -9.445312 22.59375 -10.8125 22.59375 -12.34375 C 22.59375 -13.863281 22.257812 -15.222656 21.59375 -16.421875 C 20.925781 -17.617188 20.003906 -18.550781 18.828125 -19.21875 C 17.648438 -19.894531 16.332031 -20.234375 14.875 -20.234375 C 13.414062 -20.234375 12.097656 -19.894531 10.921875 -19.21875 C 9.753906 -18.550781 8.832031 -17.617188 8.15625 -16.421875 C 7.488281 -15.222656 7.15625 -13.863281 7.15625 -12.34375 C 7.15625 -10.8125 7.488281 -9.445312 8.15625 -8.25 C 8.832031 -7.050781 9.753906 -6.113281 10.921875 -5.4375 C 12.097656 -4.769531 13.414062 -4.4375 14.875 -4.4375 Z M 14.875 -4.4375 "/></g></g></g><g fill="#000000" fill-opacity="1"><g transform="translate(1027.713397, 669.476986)"><g/></g></g><g fill="#000000" fill-opacity="1"><g transform="translate(1037.68912, 669.476986)"><g><path d="M 2.921875 -24.671875 L 14.140625 -24.671875 C 16.816406 -24.671875 19.179688 -24.160156 21.234375 -23.140625 C 23.296875 -22.117188 24.894531 -20.675781 26.03125 -18.8125 C 27.164062 -16.957031 27.734375 -14.800781 27.734375 -12.34375 C 27.734375 -9.875 27.164062 -7.707031 26.03125 -5.84375 C 24.894531 -3.988281 23.296875 -2.550781 21.234375 -1.53125 C 19.179688 -0.507812 16.816406 0 14.140625 0 L 2.921875 0 Z M 13.859375 -4.6875 C 16.316406 -4.6875 18.28125 -5.375 19.75 -6.75 C 21.21875 -8.125 21.953125 -9.988281 21.953125 -12.34375 C 21.953125 -14.6875 21.21875 -16.546875 19.75 -17.921875 C 18.28125 -19.296875 16.316406 -19.984375 13.859375 -19.984375 L 8.640625 -19.984375 L 8.640625 -4.6875 Z M 13.859375 -4.6875 "/></g></g></g><g fill="#000000" fill-opacity="1"><g transform="translate(1066.805589, 669.476986)"><g><path d="M 22.03125 -4.578125 L 22.03125 0 L 2.921875 0 L 2.921875 -24.671875 L 21.578125 -24.671875 L 21.578125 -20.09375 L 8.59375 -20.09375 L 8.59375 -14.734375 L 20.0625 -14.734375 L 20.0625 -10.296875 L 8.59375 -10.296875 L 8.59375 -4.578125 Z M 22.03125 -4.578125 "/></g></g></g><g fill="#000000" fill-opacity="1"><g transform="translate(1090.458328, 669.476986)"><g><path d="M 26.65625 -24.671875 L 15.96875 0 L 10.328125 0 L -0.3125 -24.671875 L 5.84375 -24.671875 L 13.359375 -7.046875 L 20.96875 -24.671875 Z M 26.65625 -24.671875 "/></g></g></g><g fill="#000000" fill-opacity="1"><g transform="translate(1116.75479, 669.476986)"><g><path d="M 22.03125 -4.578125 L 22.03125 0 L 2.921875 0 L 2.921875 -24.671875 L 21.578125 -24.671875 L 21.578125 -20.09375 L 8.59375 -20.09375 L 8.59375 -14.734375 L 20.0625 -14.734375 L 20.0625 -10.296875 L 8.59375 -10.296875 L 8.59375 -4.578125 Z M 22.03125 -4.578125 "/></g></g></g><g fill="#000000" fill-opacity="1"><g transform="translate(1140.407483, 669.476986)"><g><path d="M 18.640625 0 L 13.890625 -6.875 L 8.640625 -6.875 L 8.640625 0 L 2.921875 0 L 2.921875 -24.671875 L 13.609375 -24.671875 C 15.796875 -24.671875 17.691406 -24.304688 19.296875 -23.578125 C 20.910156 -22.847656 22.148438 -21.8125 23.015625 -20.46875 C 23.890625 -19.132812 24.328125 -17.550781 24.328125 -15.71875 C 24.328125 -13.882812 23.882812 -12.300781 23 -10.96875 C 22.113281 -9.644531 20.863281 -8.632812 19.25 -7.9375 L 24.78125 0 Z M 18.546875 -15.71875 C 18.546875 -17.101562 18.097656 -18.164062 17.203125 -18.90625 C 16.304688 -19.644531 15.003906 -20.015625 13.296875 -20.015625 L 8.640625 -20.015625 L 8.640625 -11.421875 L 13.296875 -11.421875 C 15.003906 -11.421875 16.304688 -11.796875 17.203125 -12.546875 C 18.097656 -13.296875 18.546875 -14.351562 18.546875 -15.71875 Z M 18.546875 -15.71875 "/></g></g></g></svg>